                                                                        S      1
1H,,1H;,41HDon't know how to make printable filename,41HDon't know how tG      1
o make printable filename,23HHarmonyWare Translators,23HHarmonyWare IGESG      2
 v1.7.5,32,38,6,308,15,,1.,2,2HMM,1,1.,15H20110218.094108,0.0001,       G      3
3.82910223973606,,,11,0,15H20110218.094108;                             G      4
     502       1       0       0       0       0       0       000010000D      1
     502       0       0       1       1                               0D      2
     126       2       0       0       0       0       0       000010000D      3
     126       0       0       5       0                               0D      4
     126       7       0       0       0       0       0       000010000D      5
     126       0       0       6       0                               0D      6
     504      13       0       0       0       0       0       000010000D      7
     504       0       0       1       1                               0D      8
     128      14       0       0       0       0       0       000010000D      9
     128       0       0      15       0                               0D     10
     508      29       0       0       0       0       0       000010000D     11
     508       0       0       1       1                               0D     12
     406      30       0       0       0       0       0       000000000D     13
     406       0       0       1    7223                               0D     14
     510      31       0       0       0       0       0       000010000D     15
     510       0       0       1       1                               0D     16
     128      32       0       0       0       0       0       000010000D     17
     128       0       0      13       0                               0D     18
     508      45       0       0       0       0       0       000010000D     19
     508       0       0       1       1                               0D     20
     406      46       0       0       0       0       0       000000000D     21
     406       0       0       1    7223                               0D     22
     510      47       0       0       0       0       0       000010000D     23
     510       0       0       1       1                               0D     24
     514      48       0       0       0       0       0       000010000D     25
     514       0       0       1       1                               0D     26
     186      49       0       0       0       0       0       000000000D     27
     186       0       0       1       0                               0D     28
     110      50       0       0       1       0       0       000000000D     29
     110       0       0       2       0                               0D     30
     110      52       0       0       1       0       0       000000000D     31
     110       0       0       2       0                               0D     32
     110      54       0       0       1       0       0       000000000D     33
     110       0       0       2       0                               0D     34
     110      56       0       0       1       0       0       000000000D     35
     110       0       0       2       0                               0D     36
     110      58       0       0       1       0       0       000000000D     37
     110       0       0       2       0                               0D     38
     110      60       0       0       1       0       0       000000000D     39
     110       0       0       2       0                               0D     40
     110      62       0       0       1       0       0       000000000D     41
     110       0       0       2       0                               0D     42
     110      64       0       0       1       0       0       000000000D     43
     110       0       0       2       0                               0D     44
     110      66       0       0       1       0       0       000000000D     45
     110       0       0       2       0                               0D     46
     110      68       0       0       1       0       0       000000000D     47
     110       0       0       2       0                               0D     48
     110      70       0       0       1       0       0       000000000D     49
     110       0       0       2       0                               0D     50
     110      72       0       0       1       0       0       000000000D     51
     110       0       0       2       0                               0D     52
     110      74       0       0       1       0       0       000000000D     53
     110       0       0       1       0                               0D     54
     110      75       0       0       1       0       0       000000000D     55
     110       0       0       1       0                               0D     56
     110      76       0       0       1       0       0       000000000D     57
     110       0       0       2       0                               0D     58
     110      78       0       0       1       0       0       000000000D     59
     110       0       0       2       0                               0D     60
     110      80       0       0       1       0       0       000000000D     61
     110       0       0       2       0                               0D     62
     110      82       0       0       1       0       0       000000000D     63
     110       0       0       2       0                               0D     64
     110      84       0       0       1       0       0       000000000D     65
     110       0       0       2       0                               0D     66
     110      86       0       0       1       0       0       000000000D     67
     110       0       0       2       0                               0D     68
     110      88       0       0       1       0       0       000000000D     69
     110       0       0       2       0                               0D     70
     110      90       0       0       1       0       0       000000000D     71
     110       0       0       2       0                               0D     72
     110      92       0       0       1       0       0       000000000D     73
     110       0       0       2       0                               0D     74
     110      94       0       0       1       0       0       000000000D     75
     110       0       0       2       0                               0D     76
     110      96       0       0       1       0       0       000000000D     77
     110       0       0       2       0                               0D     78
     110      98       0       0       1       0       0       000000000D     79
     110       0       0       2       0                               0D     80
502,2,1.,0.,1.,-1.,1.22464679914735D-16,1.;                            1P      1
126,4,2,0,0,0,0,0.,0.,0.,1.5707963267949,1.5707963267949,              3P      2
3.14159265358979,3.14159265358979,3.14159265358979,1.,                 3P      3
0.707106781186548,1.,0.707106781186548,1.,1.,0.,1.,1.,1.,1.,           3P      4
6.12323399573677D-17,1.,1.,-1.,1.,1.,-1.,1.22464679914735D-16,         3P      5
1.,0.,3.14159265358979,0.,0.,0.;                                       3P      6
126,4,2,0,0,0,0,3.14159265358979,3.14159265358979,                     5P      7
3.14159265358979,4.71238898038469,4.71238898038469,                    5P      8
6.28318530717959,6.28318530717959,6.28318530717959,1.,                 5P      9
0.707106781186548,1.,0.707106781186548,1.,-1.,                         5P     10
1.22464679914735D-16,1.,-1.,-1.,1.,-1.83697019872103D-16,-1.,1.,       5P     11
1.,-1.,1.,1.,0.,1.,3.14159265358979,6.28318530717959,0.,0.,0.;         5P     12
504,2,3,1,1,1,2,5,1,2,1,1;                                             7P     13
128,4,4,2,2,0,0,0,0,0,0.,0.,0.,0.5,0.5,1.,1.,1.,0.,0.,0.,0.5,          9P     14
0.5,1.,1.,1.,1.,0.707106781186548,1.,0.707106781186548,1.,             9P     15
0.707106781186548,0.5,0.707106781186548,0.5,0.707106781186548,         9P     16
1.,0.707106781186548,1.,0.707106781186548,1.,0.707106781186548,        9P     17
0.5,0.707106781186548,0.5,0.707106781186548,1.,                        9P     18
0.707106781186548,1.,0.707106781186548,1.,-1.,0.,1.,-1.,0.,1.,         9P     19
-1.,0.,1.,-1.,0.,1.,-1.,0.,1.,-1.,1.,1.,-1.,1.,                        9P     20
2.22044604925031D-16,-1.,6.12323399573676D-17,                         9P     21
1.11022302462516D-16,-1.,-1.,0.,-1.,-1.,1.,                            9P     22
-6.12323399573677D-17,1.,1.,-6.12323399573677D-17,1.,                  9P     23
1.11022302462516D-16,-6.12323399573677D-17,6.12323399573677D-17,       9P     24
0.,-6.12323399573677D-17,-1.,0.,-6.12323399573677D-17,-1.,1.,1.,       9P     25
1.,1.,1.,1.,2.22044604925031D-16,1.,6.12323399573677D-17,0.,1.,        9P     26
-1.,0.,1.,-1.,1.,1.,0.,1.,1.,0.,1.,1.,0.,1.,1.,0.,1.,1.,0.,1.,         9P     27
0.,1.,0.,1.;                                                           9P     28
508,2,0,7,1,1,0,0,7,2,1,0;                                            11P     29
406,1,1;                                                              13P     30
510,9,1,1,11,0,1,13;                                                  15P     31
128,4,4,2,2,0,0,0,0,0,0.,0.,0.,0.5,0.5,1.,1.,1.,0.,0.,0.,0.5,         17P     32
0.5,1.,1.,1.,1.,0.707106781186548,1.,0.707106781186548,1.,            17P     33
0.707106781186548,0.5,0.707106781186548,0.5,0.707106781186548,        17P     34
1.,0.707106781186548,1.,0.707106781186548,1.,0.707106781186548,       17P     35
0.5,0.707106781186548,0.5,0.707106781186548,1.,                       17P     36
0.707106781186548,1.,0.707106781186548,1.,1.,0.,1.,1.,0.,1.,1.,       17P     37
0.,1.,1.,0.,1.,1.,0.,1.,1.,1.,1.,1.,1.,2.,1.,                         17P     38
6.12323399573676D-17,2.,1.,-1.,2.,1.,-1.,1.,                          17P     39
6.12323399573677D-17,1.,1.,6.12323399573677D-17,1.,2.,                17P     40
6.12323399573677D-17,6.12323399573677D-17,2.,                         17P     41
6.12323399573677D-17,-1.,2.,6.12323399573677D-17,-1.,1.,-1.,1.,       17P     42
1.,-1.,1.,2.,-1.,6.12323399573677D-17,2.,-1.,-1.,2.,-1.,-1.,1.,       17P     43
-1.,0.,1.,-1.,0.,1.,-1.,0.,1.,-1.,0.,1.,-1.,0.,1.,0.,1.,0.,1.;        17P     44
508,2,0,7,1,0,0,0,7,2,0,0;                                            19P     45
406,1,2;                                                              21P     46
510,17,1,1,19,0,1,21;                                                 23P     47
514,2,15,1,23,1;                                                      25P     48
186,25,0,0;                                                           27P     49
110,-0.999999999993439,0.,0.999996377577058,0.130687259968871,        29P     50
0.,1.99142364309201;                                                  29P     51
110,0.130687259968871,0.,1.99142364309201,-3.48100203612369,0.,       31P     52
2.46749518444153;                                                     31P     53
110,-0.833333333327866,0.,0.447229201599191,-0.177246487209631,       33P     54
0.,1.98416649138845;                                                  33P     55
110,-0.177246487209631,0.,1.98416649138845,0.327350279343231,0.,      35P     56
2.46749518444153;                                                     35P     57
110,-0.666666666662293,0.,0.254644007496158,-0.179428804278423,       37P     58
0.,1.9837709612482;                                                   37P     59
110,-0.179428804278423,0.,1.9837709612482,0.116693882911261,0.,       39P     60
2.46749518444153;                                                     39P     61
110,-0.49999999999672,0.,0.133974596213667,-0.147706840783447,        41P     62
0.,1.98903118716539;                                                  41P     63
110,-0.147706840783447,0.,1.98903118716539,0.0408224626150281,        43P     64
0.,2.46749518444153;                                                  43P     65
110,-0.333333333331146,0.,0.0571909584171634,-0.103118667731312,      45P     66
0.,1.99466906072589;                                                  45P     67
110,-0.103118667731312,0.,1.99466906072589,0.0108545947568624,        47P     68
0.,2.46749518444153;                                                  47P     69
110,-0.166666666665573,0.,0.0139867028165458,                         49P     70
-0.0527332197264399,0.,1.9986086358215;                               49P     71
110,-0.0527332197264399,0.,1.9986086358215,0.00128059932418252,       51P     72
0.,2.46749518444153;                                                  51P     73
110,0.,0.,0.,0.,0.,2.;                                                53P     74
110,0.,0.,2.,0.,0.,2.46749518444153;                                  55P     75
110,0.166666666665573,0.,0.0139867028165458,0.0527332197264398,       57P     76
0.,1.9986086358215;                                                   57P     77
110,0.0527332197264398,0.,1.9986086358215,-0.00128059932418251,       59P     78
0.,2.46749518444153;                                                  59P     79
110,0.333333333331146,0.,0.0571909584171634,0.103118667731312,        61P     80
0.,1.99466906072589;                                                  61P     81
110,0.103118667731312,0.,1.99466906072589,-0.0108545947568624,        63P     82
0.,2.46749518444153;                                                  63P     83
110,0.49999999999672,0.,0.133974596213667,0.147706840783447,0.,       65P     84
1.98903118716539;                                                     65P     85
110,0.147706840783447,0.,1.98903118716539,-0.0408224626150281,        67P     86
0.,2.46749518444153;                                                  67P     87
110,0.666666666662293,0.,0.254644007496158,0.179428804278422,0.,      69P     88
1.9837709612482;                                                      69P     89
110,0.179428804278422,0.,1.9837709612482,-0.11669388291126,0.,        71P     90
2.46749518444153;                                                     71P     91
110,0.833333333327866,0.,0.447229201599191,0.177246487209631,0.,      73P     92
1.98416649138845;                                                     73P     93
110,0.177246487209631,0.,1.98416649138845,-0.32735027934323,0.,       75P     94
2.46749518444153;                                                     75P     95
110,0.999999999993439,0.,0.999996377577058,-0.130687259968871,        77P     96
0.,1.99142364309201;                                                  77P     97
110,-0.130687259968871,0.,1.99142364309201,3.48100203612369,0.,       79P     98
2.46749518444153;                                                     79P     99
S      1G      4D     80P     99                                        T      1
