  0
SECTION
  2
HEADER
  9
$ACADVER
  1
AC1015
  9
$ACADMAINTVER
 70
     6
  9
$DWGCODEPAGE
  3
ANSI_1252
  9
$INSBASE
 10
0.0
 20
0.0
 30
0.0
  9
$EXTMIN
 10
0.0
 20
0.0
 30
0.0
  9
$EXTMAX
 10
279.4
 20
215.9
 30
0.0
  9
$LIMMIN
 10
0.0
 20
0.0
  9
$LIMMAX
 10
279.4
 20
215.9
  9
$ORTHOMODE
 70
     0
  9
$REGENMODE
 70
     1
  9
$FILLMODE
 70
     1
  9
$QTEXTMODE
 70
     0
  9
$MIRRTEXT
 70
     1
  9
$LTSCALE
 40
1.0
  9
$ATTMODE
 70
     1
  9
$TEXTSIZE
 40
2.8222222222
  9
$TRACEWID
 40
1.0
  9
$TEXTSTYLE
  7
Standard
  9
$CLAYER
  8
0
  9
$CELTYPE
  6
ByLayer
  9
$CECOLOR
 62
   256
  9
$CELTSCALE
 40
1.0
  9
$DISPSILH
 70
     0
  9
$DIMSCALE
 40
1.0
  9
$DIMASZ
 40
3.175
  9
$DIMEXO
 40
1.27
  9
$DIMDLI
 40
3.75
  9
$DIMRND
 40
0.0
  9
$DIMDLE
 40
0.0
  9
$DIMEXE
 40
1.778
  9
$DIMTP
 40
0.0
  9
$DIMTM
 40
0.0
  9
$DIMTXT
 40
2.8222222222
  9
$DIMCEN
 40
2.5
  9
$DIMTSZ
 40
0.0
  9
$DIMTOL
 70
     0
  9
$DIMLIM
 70
     0
  9
$DIMTIH
 70
     1
  9
$DIMTOH
 70
     1
  9
$DIMSE1
 70
     0
  9
$DIMSE2
 70
     0
  9
$DIMTAD
 70
     1
  9
$DIMZIN
 70
     1
  9
$DIMBLK
  1

  9
$DIMASO
 70
     1
  9
$DIMSHO
 70
     1
  9
$DIMPOST
  1

  9
$DIMAPOST
  1

  9
$DIMALT
 70
     0
  9
$DIMALTD
 70
     3
  9
$DIMALTF
 40
0.0393700787
  9
$DIMLFAC
 40
0.1
  9
$DIMTOFL
 70
     1
  9
$DIMTVP
 40
0.0
  9
$DIMTIX
 70
     0
  9
$DIMSOXD
 70
     0
  9
$DIMSAH
 70
     0
  9
$DIMBLK1
  1

  9
$DIMBLK2
  1

  9
$DIMSTYLE
  2
ISO-25
  9
$DIMCLRD
 70
     0
  9
$DIMCLRE
 70
     0
  9
$DIMCLRT
 70
     0
  9
$DIMTFAC
 40
1.0
  9
$DIMGAP
 40
2.54
  9
$DIMJUST
 70
     0
  9
$DIMSD1
 70
     0
  9
$DIMSD2
 70
     0
  9
$DIMTOLJ
 70
     0
  9
$DIMTZIN
 70
     1
  9
$DIMALTZ
 70
     0
  9
$DIMALTTZ
 70
     0
  9
$DIMUPT
 70
     0
  9
$DIMDEC
 70
     1
  9
$DIMTDEC
 70
     1
  9
$DIMALTU
 70
     2
  9
$DIMALTTD
 70
     3
  9
$DIMTXSTY
  7
Standard
  9
$DIMAUNIT
 70
     0
  9
$DIMADEC
 70
     0
  9
$DIMALTRND
 40
0.0
  9
$DIMAZIN
 70
     0
  9
$DIMDSEP
 70
    44
  9
$DIMATFIT
 70
     3
  9
$DIMFRAC
 70
     0
  9
$DIMLDRBLK
  1

  9
$DIMLUNIT
 70
     2
  9
$DIMLWD
 70
    -2
  9
$DIMLWE
 70
    -2
  9
$DIMTMOVE
 70
     0
  9
$LUNITS
 70
     2
  9
$LUPREC
 70
     1
  9
$SKETCHINC
 40
1.0
  9
$FILLETRAD
 40
10.0
  9
$AUNITS
 70
     0
  9
$AUPREC
 70
     0
  9
$MENU
  1
.
  9
$ELEVATION
 40
0.0
  9
$PELEVATION
 40
0.0
  9
$THICKNESS
 40
0.0
  9
$LIMCHECK
 70
     0
  9
$CHAMFERA
 40
10.0
  9
$CHAMFERB
 40
10.0
  9
$CHAMFERC
 40
20.0
  9
$CHAMFERD
 40
0.0
  9
$SKPOLY
 70
     0
  9
$TDCREATE
 40
2456217.718186852
  9
$TDUCREATE
 40
2456217.884853519
  9
$TDUPDATE
 40
2456217.718186863
  9
$TDUUPDATE
 40
2456217.88485353
  9
$TDINDWG
 40
0.0000000116
  9
$TDUSRTIMER
 40
0.0000000116
  9
$USRTIMER
 70
     1
  9
$ANGBASE
 50
0.0
  9
$ANGDIR
 70
     0
  9
$PDMODE
 70
     0
  9
$PDSIZE
 40
-1.0
  9
$PLINEWID
 40
0.0
  9
$SPLFRAME
 70
     0
  9
$SPLINETYPE
 70
     6
  9
$SPLINESEGS
 70
     8
  9
$HANDSEED
  5
149
  9
$SURFTAB1
 70
     6
  9
$SURFTAB2
 70
     6
  9
$SURFTYPE
 70
     6
  9
$SURFU
 70
     6
  9
$SURFV
 70
     6
  9
$UCSBASE
  2

  9
$UCSNAME
  2

  9
$UCSORG
 10
0.0
 20
0.0
 30
0.0
  9
$UCSXDIR
 10
1.0
 20
0.0
 30
0.0
  9
$UCSYDIR
 10
0.0
 20
1.0
 30
0.0
  9
$UCSORTHOREF
  2

  9
$UCSORTHOVIEW
 70
     0
  9
$UCSORGTOP
 10
0.0
 20
0.0
 30
0.0
  9
$UCSORGBOTTOM
 10
0.0
 20
0.0
 30
0.0
  9
$UCSORGLEFT
 10
0.0
 20
0.0
 30
0.0
  9
$UCSORGRIGHT
 10
0.0
 20
0.0
 30
0.0
  9
$UCSORGFRONT
 10
0.0
 20
0.0
 30
0.0
  9
$UCSORGBACK
 10
0.0
 20
0.0
 30
0.0
  9
$PUCSBASE
  2

  9
$PUCSNAME
  2

  9
$PUCSORG
 10
0.0
 20
0.0
 30
0.0
  9
$PUCSXDIR
 10
1.0
 20
0.0
 30
0.0
  9
$PUCSYDIR
 10
0.0
 20
1.0
 30
0.0
  9
$PUCSORTHOREF
  2

  9
$PUCSORTHOVIEW
 70
     0
  9
$PUCSORGTOP
 10
0.0
 20
0.0
 30
0.0
  9
$PUCSORGBOTTOM
 10
0.0
 20
0.0
 30
0.0
  9
$PUCSORGLEFT
 10
0.0
 20
0.0
 30
0.0
  9
$PUCSORGRIGHT
 10
0.0
 20
0.0
 30
0.0
  9
$PUCSORGFRONT
 10
0.0
 20
0.0
 30
0.0
  9
$PUCSORGBACK
 10
0.0
 20
0.0
 30
0.0
  9
$USERI1
 70
     0
  9
$USERI2
 70
     0
  9
$USERI3
 70
     0
  9
$USERI4
 70
     0
  9
$USERI5
 70
     0
  9
$USERR1
 40
0.0
  9
$USERR2
 40
0.0
  9
$USERR3
 40
0.0
  9
$USERR4
 40
0.0
  9
$USERR5
 40
0.0
  9
$WORLDVIEW
 70
     1
  9
$SHADEDGE
 70
     3
  9
$SHADEDIF
 70
    70
  9
$TILEMODE
 70
     1
  9
$MAXACTVP
 70
    64
  9
$PINSBASE
 10
0.0
 20
0.0
 30
0.0
  9
$PLIMCHECK
 70
     0
  9
$PEXTMIN
 10
1.0000000000E+20
 20
1.0000000000E+20
 30
1.0000000000E+20
  9
$PEXTMAX
 10
-1.0000000000E+20
 20
-1.0000000000E+20
 30
-1.0000000000E+20
  9
$PLIMMIN
 10
0.0
 20
0.0
  9
$PLIMMAX
 10
420.0
 20
297.0
  9
$UNITMODE
 70
     0
  9
$VISRETAIN
 70
     1
  9
$PLINEGEN
 70
     0
  9
$PSLTSCALE
 70
     1
  9
$TREEDEPTH
 70
  3020
  9
$CMLSTYLE
  2
Standard
  9
$CMLJUST
 70
     0
  9
$CMLSCALE
 40
20.0
  9
$PROXYGRAPHICS
 70
     1
  9
$MEASUREMENT
 70
     1
  9
$CELWEIGHT
370
    -1
  9
$ENDCAPS
280
     0
  9
$JOINSTYLE
280
     0
  9
$LWDISPLAY
290
     1
  9
$INSUNITS
 70
     4
  9
$HYPERLINKBASE
  1

  9
$STYLESHEET
  1

  9
$XEDIT
290
     1
  9
$CEPSNTYPE
380
     0
  9
$PSTYLEMODE
290
     1
  9
$FINGERPRINTGUID
  2
{C8B2D6AA-DE22-4C74-9755-6121598E4132}
  9
$VERSIONGUID
  2
{FAEB1C32-E019-11D5-929B-00C0DF256EC4}
  9
$EXTNAMES
290
     1
  9
$PSVPSCALE
 40
0.0
  9
$OLESTARTUP
290
     0
  0
ENDSEC
  0
SECTION
  2
CLASSES
  0
CLASS
  1
ACDBDICTIONARYWDFLT
  2
AcDbDictionaryWithDefault
  3
ObjectDBX Classes
 90
        0
280
     0
281
     0
  0
CLASS
  1
VISUALSTYLE
  2
AcDbVisualStyle
  3
ObjectDBX Classes
 90
     4095
280
     0
281
     0
  0
CLASS
  1
MATERIAL
  2
AcDbMaterial
  3
ObjectDBX Classes
 90
     1153
280
     0
281
     0
  0
CLASS
  1
ACDBPLACEHOLDER
  2
AcDbPlaceHolder
  3
ObjectDBX Classes
 90
        0
280
     0
281
     0
  0
CLASS
  1
LAYOUT
  2
AcDbLayout
  3
ObjectDBX Classes
 90
        0
280
     0
281
     0
  0
ENDSEC
  0
SECTION
  2
TABLES
  0
TABLE
  2
VPORT
  5
8
330
0
100
AcDbSymbolTable
 70
     1
  0
VPORT
  5
29
330
8
100
AcDbSymbolTableRecord
100
AcDbViewportTableRecord
  2
*Active
 70
     0
 10
0.0
 20
0.0
 11
1.0
 21
1.0
 12
139.7
 22
107.95
 13
0.0
 23
0.0
 14
10.0
 24
10.0
 15
10.0
 25
10.0
 16
0.0
 26
0.0
 36
1.0
 17
0.0
 27
0.0
 37
0.0
 40
215.9
 41
1.2941176471
 42
50.0
 43
0.0
 44
0.0
 50
0.0
 51
0.0
 71
     0
 72
  2000
 73
     1
 74
     3
 75
     0
 76
     0
 77
     0
 78
     0
281
     0
 65
     1
110
0.0
120
0.0
130
0.0
111
1.0
121
0.0
131
0.0
112
0.0
122
1.0
132
0.0
 79
     0
146
0.0
  0
ENDTAB
  0
TABLE
  2
LTYPE
  5
5
330
0
100
AcDbSymbolTable
 70
     6
  0
LTYPE
  5
14
330
5
100
AcDbSymbolTableRecord
100
AcDbLinetypeTableRecord
  2
ByBlock
 70
     0
  3

 72
    65
 73
     0
 40
0.0
  0
LTYPE
  5
15
330
5
100
AcDbSymbolTableRecord
100
AcDbLinetypeTableRecord
  2
ByLayer
 70
     0
  3

 72
    65
 73
     0
 40
0.0
  0
LTYPE
  5
16
330
5
100
AcDbSymbolTableRecord
100
AcDbLinetypeTableRecord
  2
Continuous
 70
     0
  3
Solid line
 72
    65
 73
     0
 40
0.0
  0
LTYPE
  5
3F
330
5
100
AcDbSymbolTableRecord
100
AcDbLinetypeTableRecord
  2
HIDDEN
 70
     0
  3
Hidden __ __ __ __ __ __ __ __ __ __ __ __ __ __
 72
    65
 73
     2
 40
1.905
 49
1.27
 74
     0
 49
-0.635
 74
     0
  0
LTYPE
  5
40
330
5
100
AcDbSymbolTableRecord
100
AcDbLinetypeTableRecord
  2
PHANTOM
 70
     0
  3
Phantom ______  __  __  ______  __  __  ______
 72
    65
 73
     6
 40
12.7
 49
6.35
 74
     0
 49
-1.27
 74
     0
 49
1.27
 74
     0
 49
-1.27
 74
     0
 49
1.27
 74
     0
 49
-1.27
 74
     0
  0
LTYPE
  5
41
330
5
100
AcDbSymbolTableRecord
100
AcDbLinetypeTableRecord
  2
CENTER
 70
     0
  3
Center ____ _ ____ _ ____ _ ____ _ ____ _ ____
 72
    65
 73
     4
 40
10.16
 49
6.35
 74
     0
 49
-1.27
 74
     0
 49
1.27
 74
     0
 49
-1.27
 74
     0
  0
LTYPE
  5
42
330
5
100
AcDbSymbolTableRecord
100
AcDbLinetypeTableRecord
  2
CENTERX2
 70
     0
  3
Center (2x) ________  __  ________  __  _____
 72
    65
 73
     4
 40
20.32
 49
12.7
 74
     0
 49
-2.54
 74
     0
 49
2.54
 74
     0
 49
-2.54
 74
     0
  0
LTYPE
  5
43
330
5
100
AcDbSymbolTableRecord
100
AcDbLinetypeTableRecord
  2
DOT2
 70
     0
  3
Dot (.5x) ........................................
 72
    65
 73
     2
 40
0.635
 49
0.0
 74
     0
 49
-0.635
 74
     0
  0
ENDTAB
  0
TABLE
  2
LAYER
  5
2
330
0
100
AcDbSymbolTable
 70
     2
  0
LAYER
  5
10
330
2
100
AcDbSymbolTableRecord
100
AcDbLayerTableRecord
  2
0
 70
     0
 62
     7
  6
Continuous
370
    -3
390
F
  0
LAYER
  5
44
330
2
100
AcDbSymbolTableRecord
100
AcDbLayerTableRecord
  2
FORMAT
 70
     0
 62
     7
  6
Continuous
370
    -3
390
F
  0
ENDTAB
  0
TABLE
  2
STYLE
  5
3
330
0
100
AcDbSymbolTable
 70
     5
  0
STYLE
  5
11
330
3
100
AcDbSymbolTableRecord
100
AcDbTextStyleTableRecord
  2
Standard
 70
     0
 40
0.0
 41
1.0
 50
0.0
 71
     0
 42
2.5
  3
txt
  4

  0
STYLE
  5
6E
330
3
100
AcDbSymbolTableRecord
100
AcDbTextStyleTableRecord
  2
SLDTEXTSTYLE0
 70
     0
 40
0.0
 41
0.75
 50
0.0
 71
     0
 42
0.2
  3
TXT
  4

  0
STYLE
  5
74
330
3
100
AcDbSymbolTableRecord
100
AcDbTextStyleTableRecord
  2
SLDTEXTSTYLE1
 70
     0
 40
0.0
 41
0.75
 50
0.0
 71
     0
 42
0.2
  3
TXT
  4
bigfont
  0
STYLE
  5
7F
330
3
100
AcDbSymbolTableRecord
100
AcDbTextStyleTableRecord
  2
SLDTEXTSTYLE2
 70
     0
 40
0.0
 41
0.6875
 50
0.0
 71
     0
 42
0.2
  3
TXT
  4

  0
STYLE
  5
8B
330
3
100
AcDbSymbolTableRecord
100
AcDbTextStyleTableRecord
  2
SLDTEXTSTYLE3
 70
     0
 40
0.0
 41
0.6
 50
0.0
 71
     0
 42
0.2
  3
TXT
  4

  0
ENDTAB
  0
TABLE
  2
VIEW
  5
6
330
0
100
AcDbSymbolTable
 70
     0
  0
ENDTAB
  0
TABLE
  2
UCS
  5
7
330
0
100
AcDbSymbolTable
 70
     0
  0
ENDTAB
  0
TABLE
  2
APPID
  5
9
330
0
100
AcDbSymbolTable
 70
     1
  0
APPID
  5
12
330
9
100
AcDbSymbolTableRecord
100
AcDbRegAppTableRecord
  2
ACAD
 70
     0
  0
ENDTAB
  0
TABLE
  2
DIMSTYLE
  5
A
330
0
100
AcDbSymbolTable
 70
     5
100
AcDbDimStyleTable
  0
DIMSTYLE
105
27
330
A
100
AcDbSymbolTableRecord
100
AcDbDimStyleTableRecord
  2
ISO-25
 70
     0
 41
2.5
 42
0.625
 43
3.75
 44
1.25
 73
     0
 74
     0
 77
     1
 78
     8
140
2.5
141
2.5
143
0.0393700787
147
0.625
171
     3
172
     1
178
     0
271
     2
272
     2
274
     3
278
    44
283
     0
284
     8
340
11
  0
DIMSTYLE
105
BD
102
{ACAD_REACTORS
330
BC
330
E6
330
11E
102
}
330
A
100
AcDbSymbolTableRecord
100
AcDbDimStyleTableRecord
  2
SLDDIMSTYLE0
 70
     0
 41
3.175
 44
0.0
 45
0.000000001
 78
     4
 79
     1
140
2.1166666667
143
0.0393700787
144
0.125
147
0.5291666667
148
0.000000001
170
     1
173
     1
178
     0
271
     1
272
     1
276
     2
284
    12
340
6E
  0
DIMSTYLE
105
D2
102
{ACAD_REACTORS
330
D1
102
}
330
A
100
AcDbSymbolTableRecord
100
AcDbDimStyleTableRecord
  2
SLDDIMSTYLE1
 70
     0
 41
3.175
 44
0.0
 45
0.000000001
 78
    12
 79
     3
140
2.1166666667
143
0.0393700787
144
0.125
147
0.5291666667
148
0.000000001
170
     1
173
     1
178
     0
271
     1
272
     1
276
     2
284
    12
340
6E
  0
DIMSTYLE
105
FB
102
{ACAD_REACTORS
330
FA
102
}
330
A
100
AcDbSymbolTableRecord
100
AcDbDimStyleTableRecord
  2
SLDDIMSTYLE2
 70
     0
 41
3.175
 44
0.0
 78
    12
 79
     3
140
2.1166666667
143
0.0393700787
144
0.125
147
0.5291666667
148
0.000000001
170
     1
173
     1
178
     0
272
     0
276
     2
284
    12
340
6E
  0
DIMSTYLE
105
10D
330
A
100
AcDbSymbolTableRecord
100
AcDbDimStyleTableRecord
  2
SLDDIMSTYLE3
 70
     0
 41
3.175
 44
0.0
 45
0.000000001
140
0.0
146
3.175
147
0.0
173
     1
178
     0
271
     0
272
     0
276
     2
340
11
  0
ENDTAB
  0
TABLE
  2
BLOCK_RECORD
  5
1
330
0
100
AcDbSymbolTable
 70
    12
  0
BLOCK_RECORD
  5
1F
330
1
100
AcDbSymbolTableRecord
100
AcDbBlockTableRecord
  2
*Model_Space
340
22
  0
BLOCK_RECORD
  5
1B
330
1
100
AcDbSymbolTableRecord
100
AcDbBlockTableRecord
  2
*Paper_Space
340
1E
  0
BLOCK_RECORD
  5
23
330
1
100
AcDbSymbolTableRecord
100
AcDbBlockTableRecord
  2
*Paper_Space0
340
26
  0
BLOCK_RECORD
  5
45
330
1
100
AcDbSymbolTableRecord
100
AcDbBlockTableRecord
  2
Third Angle Projection Block
340
0
102
{BLKREFS
331
6A
102
}
  0
BLOCK_RECORD
  5
6B
330
1
100
AcDbSymbolTableRecord
100
AcDbBlockTableRecord
  2
SW_NOTE_0
340
0
102
{BLKREFS
331
81
102
}
  0
BLOCK_RECORD
  5
91
330
1
100
AcDbSymbolTableRecord
100
AcDbBlockTableRecord
  2
SW_NOTE_1
340
0
102
{BLKREFS
331
96
102
}
  0
BLOCK_RECORD
  5
97
330
1
100
AcDbSymbolTableRecord
100
AcDbBlockTableRecord
  2
SW_NOTE_2
340
0
102
{BLKREFS
331
9C
102
}
  0
BLOCK_RECORD
  5
9E
330
1
100
AcDbSymbolTableRecord
100
AcDbBlockTableRecord
  2
SW_NOTE_3
340
0
102
{BLKREFS
331
A3
102
}
  0
BLOCK_RECORD
  5
A4
330
1
100
AcDbSymbolTableRecord
100
AcDbBlockTableRecord
  2
SW_NOTE_4
340
0
102
{BLKREFS
331
A9
102
}
  0
BLOCK_RECORD
  5
BE
330
1
100
AcDbSymbolTableRecord
100
AcDbBlockTableRecord
  2
*D7
340
0
  0
BLOCK_RECORD
  5
D3
330
1
100
AcDbSymbolTableRecord
100
AcDbBlockTableRecord
  2
*D8
340
0
  0
BLOCK_RECORD
  5
E7
330
1
100
AcDbSymbolTableRecord
100
AcDbBlockTableRecord
  2
*D9
340
0
  0
BLOCK_RECORD
  5
FC
330
1
100
AcDbSymbolTableRecord
100
AcDbBlockTableRecord
  2
*D10
340
0
  0
BLOCK_RECORD
  5
11F
330
1
100
AcDbSymbolTableRecord
100
AcDbBlockTableRecord
  2
*D11
340
0
  0
ENDTAB
  0
ENDSEC
  0
SECTION
  2
BLOCKS
  0
BLOCK
  5
20
330
1F
100
AcDbEntity
  8
0
100
AcDbBlockBegin
  2
*Model_Space
 70
     0
 10
0.0
 20
0.0
 30
0.0
  3
*Model_Space
  1

  0
ENDBLK
  5
21
330
1F
100
AcDbEntity
  8
0
100
AcDbBlockEnd
  0
BLOCK
  5
1C
330
1B
100
AcDbEntity
 67
     1
  8
0
100
AcDbBlockBegin
  2
*Paper_Space
 70
     0
 10
0.0
 20
0.0
 30
0.0
  3
*Paper_Space
  1

  0
ENDBLK
  5
1D
330
1B
100
AcDbEntity
 67
     1
  8
0
100
AcDbBlockEnd
  0
BLOCK
  5
24
330
23
100
AcDbEntity
  8
0
100
AcDbBlockBegin
  2
*Paper_Space0
 70
     0
 10
0.0
 20
0.0
 30
0.0
  3
*Paper_Space0
  1

  0
ENDBLK
  5
25
330
23
100
AcDbEntity
  8
0
100
AcDbBlockEnd
  0
BLOCK
  5
46
330
45
100
AcDbEntity
  8
0
100
AcDbBlockBegin
  2
Third Angle Projection Block
 70
     0
 10
0.0
 20
0.0
 30
0.0
  3
Third Angle Projection Block
  1

  0
CIRCLE
  5
48
330
45
100
AcDbEntity
  8
0
  6
Continuous
 62
     7
370
    30
100
AcDbCircle
 10
101.4766388944
 20
18.9404083667
 30
0.0
 40
1.768227153674871
  0
CIRCLE
  5
49
330
45
100
AcDbEntity
  8
0
  6
Continuous
 62
     7
370
    30
100
AcDbCircle
 10
101.4766388944
 20
18.9404083667
 30
0.0
 40
3.901228248531818
  0
LINE
  5
4A
330
45
100
AcDbEntity
  8
0
  6
CENTERX2
 62
     7
370
     0
100
AcDbLine
 10
110.1367822585
 20
18.9404083667
 30
0.0
 11
119.4527334874
 21
18.9404083667
 31
0.0
  0
LINE
  5
4B
330
45
100
AcDbEntity
  8
0
  6
Continuous
 62
     7
370
    30
100
AcDbLine
 10
111.0016388944
 20
20.7086355204
 30
0.0
 11
111.0016388944
 21
17.172181213
 31
0.0
  0
LINE
  5
4C
330
45
100
AcDbEntity
  8
0
  6
Continuous
 62
     7
370
    30
100
AcDbLine
 10
111.0016388944
 20
17.172181213
 30
0.0
 11
118.6216388944
 21
15.1304083667
 31
0.0
  0
LINE
  5
4D
330
45
100
AcDbEntity
  8
0
  6
Continuous
 62
     7
370
    30
100
AcDbLine
 10
118.6216388944
 20
15.1304083667
 30
0.0
 11
118.6216388944
 21
22.7504083667
 31
0.0
  0
LINE
  5
4E
330
45
100
AcDbEntity
  8
0
  6
Continuous
 62
     7
370
    30
100
AcDbLine
 10
118.6216388944
 20
22.7504083667
 30
0.0
 11
111.0016388944
 21
20.7086355204
 31
0.0
  0
LINE
  5
4F
330
45
100
AcDbEntity
  8
0
  6
CENTERX2
 62
     7
370
     0
100
AcDbLine
 10
96.6025854619
 20
18.9404083667
 30
0.0
 11
106.3506923269
 21
18.9404083667
 31
0.0
  0
LINE
  5
50
330
45
100
AcDbEntity
  8
0
  6
CENTERX2
 62
     7
370
     0
100
AcDbLine
 10
101.4766388944
 20
23.8144617992
 30
0.0
 11
101.4766388944
 21
14.0663549342
 31
0.0
  0
POINT
  5
51
330
45
100
AcDbEntity
  8
0
  6
Continuous
 62
     7
370
     0
100
AcDbPoint
 10
101.4766388944
 20
18.9404083667
 30
0.0
  0
ENDBLK
  5
47
330
45
100
AcDbEntity
  8
0
100
AcDbBlockEnd
  0
BLOCK
  5
6C
330
6B
100
AcDbEntity
  8
0
100
AcDbBlockBegin
  2
SW_NOTE_0
 70
     0
 10
0.0
 20
0.0
 30
0.0
  3
SW_NOTE_0
  1

  0
MTEXT
  5
6F
330
6B
100
AcDbEntity
  8
0
  6
Continuous
 62
     0
370
     0
100
AcDbMText
 10
0.0
 20
2.7285267159
 30
0.0
 40
2.1166666667
 41
0.0
 71
     1
 72
     1
  1
NOTES/SPECIFICATIONS:
  7
SLDTEXTSTYLE0
 73
     1
 44
1.0
  0
MTEXT
  5
70
330
6B
100
AcDbEntity
  8
0
  6
Continuous
 62
     0
370
     0
100
AcDbMText
 10
9.9999997765
 20
-2.9159176604
 30
0.0
 40
2.1166666667
 41
0.0
 71
     1
 72
     1
  1
CLEAR APERTURE: 70% OF FACE LENGTH AND WIDTH
  7
SLDTEXTSTYLE0
 73
     1
 44
1.0
  0
MTEXT
  5
71
330
6B
100
AcDbEntity
  8
0
  6
Continuous
 62
     0
370
     0
100
AcDbMText
 10
0.0
 20
-2.9159176604
 30
0.0
 40
2.1166666667
 41
0.0
 71
     1
 72
     1
  1
1.
  7
SLDTEXTSTYLE0
 73
     1
 44
1.0
  0
MTEXT
  5
72
330
6B
100
AcDbEntity
  8
0
  6
Continuous
 62
     0
370
     0
100
AcDbMText
 10
9.9999997765
 20
-5.7381398485
 30
0.0
 40
2.1166666667
 41
0.0
 71
     1
 72
     1
  1
SURFACE QUALITY: 10-5 SCRATCH-DIG
  7
SLDTEXTSTYLE0
 73
     1
 44
1.0
  0
MTEXT
  5
73
330
6B
100
AcDbEntity
  8
0
  6
Continuous
 62
     0
370
     0
100
AcDbMText
 10
0.0
 20
-5.7381398485
 30
0.0
 40
2.1166666667
 41
0.0
 71
     1
 72
     1
  1
2.
  7
SLDTEXTSTYLE0
 73
     1
 44
1.0
  0
MTEXT
  5
75
330
6B
100
AcDbEntity
  8
0
  6
Continuous
 62
     0
370
     0
100
AcDbMText
 10
9.9999997765
 20
-8.5603620366
 30
0.0
 40
2.1166666667
 41
0.0
 71
     1
 72
     1
  1
SURFACE FLATNESS: \M+183C9/ 10 AT 633nm
  7
SLDTEXTSTYLE1
 73
     1
 44
1.0
  0
MTEXT
  5
76
330
6B
100
AcDbEntity
  8
0
  6
Continuous
 62
     0
370
     0
100
AcDbMText
 10
0.0
 20
-8.5603620366
 30
0.0
 40
2.1166666667
 41
0.0
 71
     1
 72
     1
  1
3.
  7
SLDTEXTSTYLE0
 73
     1
 44
1.0
  0
MTEXT
  5
77
330
6B
100
AcDbEntity
  8
0
  6
Continuous
 62
     0
370
     0
100
AcDbMText
 10
9.9999997765
 20
-11.3825842247
 30
0.0
 40
2.1166666667
 41
0.0
 71
     1
 72
     1
  1
DIMENSIONAL TOLERANCES: ±0.1 mm
  7
SLDTEXTSTYLE0
 73
     1
 44
1.0
  0
MTEXT
  5
78
330
6B
100
AcDbEntity
  8
0
  6
Continuous
 62
     0
370
     0
100
AcDbMText
 10
0.0
 20
-11.3825842247
 30
0.0
 40
2.1166666667
 41
0.0
 71
     1
 72
     1
  1
4.
  7
SLDTEXTSTYLE0
 73
     1
 44
1.0
  0
MTEXT
  5
79
330
6B
100
AcDbEntity
  8
0
  6
Continuous
 62
     0
370
     0
100
AcDbMText
 10
9.9999997765
 20
-14.2048064128
 30
0.0
 40
2.1166666667
 41
0.0
 71
     1
 72
     1
  1
ANGULAR TOLERANCES: ±3 arcmin
  7
SLDTEXTSTYLE0
 73
     1
 44
1.0
  0
MTEXT
  5
7A
330
6B
100
AcDbEntity
  8
0
  6
Continuous
 62
     0
370
     0
100
AcDbMText
 10
0.0
 20
-14.2048064128
 30
0.0
 40
2.1166666667
 41
0.0
 71
     1
 72
     1
  1
5.
  7
SLDTEXTSTYLE0
 73
     1
 44
1.0
  0
MTEXT
  5
7B
330
6B
100
AcDbEntity
  8
0
  6
Continuous
 62
     0
370
     0
100
AcDbMText
 10
9.9999997765
 20
-17.027028601
 30
0.0
 40
2.1166666667
 41
0.0
 71
     1
 72
     1
  1
COATING (S1): E02 BROADBAND HR, DIELECTRIC
  7
SLDTEXTSTYLE0
 73
     1
 44
1.0
  0
MTEXT
  5
7C
330
6B
100
AcDbEntity
  8
0
  6
Continuous
 62
     0
370
     0
100
AcDbMText
 10
0.0
 20
-17.027028601
 30
0.0
 40
2.1166666667
 41
0.0
 71
     1
 72
     1
  1
6.
  7
SLDTEXTSTYLE0
 73
     1
 44
1.0
  0
MTEXT
  5
7D
330
6B
100
AcDbEntity
  8
0
  6
Continuous
 62
     0
370
     0
100
AcDbMText
 10
20.0
 20
-19.8492507891
 30
0.0
 40
2.1166666667
 41
0.0
 71
     1
 72
     1
  1
WAVELENGTH RANGE: 400-750nm
  7
SLDTEXTSTYLE0
 73
     1
 44
1.0
  0
MTEXT
  5
7E
330
6B
100
AcDbEntity
  8
0
  6
Continuous
 62
     0
370
     0
100
AcDbMText
 10
20.0
 20
-22.6714729772
 30
0.0
 40
2.1166666667
 41
0.0
 71
     1
 72
     1
  1
RS AND RP > 99% Ravg OVER WAVELENGTH RANGE
  7
SLDTEXTSTYLE0
 73
     1
 44
1.0
  0
MTEXT
  5
80
330
6B
100
AcDbEntity
  8
0
  6
Continuous
 62
     0
370
     0
100
AcDbMText
 10
20.0
 20
-25.4936951653
 30
0.0
 40
2.1166666667
 41
0.0
 71
     1
 72
     1
  1
AOI: 0 TO 45 deg
  7
SLDTEXTSTYLE2
 73
     1
 44
1.0
  0
ENDBLK
  5
6D
330
6B
100
AcDbEntity
  8
0
100
AcDbBlockEnd
  0
BLOCK
  5
92
330
91
100
AcDbEntity
  8
0
100
AcDbBlockBegin
  2
SW_NOTE_1
 70
     0
 10
0.0
 20
0.0
 30
0.0
  3
SW_NOTE_1
  1

  0
MTEXT
  5
94
330
91
100
AcDbEntity
  8
0
  6
Continuous
 62
     0
370
     0
100
AcDbMText
 10
19.90725
 20
1.9645392354
 30
0.0
 40
1.524
 41
0.0
 71
     2
 72
     1
  1
VALUES IN PARENTHESIS ARE CALCULATED
  7
SLDTEXTSTYLE0
 73
     1
 44
1.0
  0
MTEXT
  5
95
330
91
100
AcDbEntity
  8
0
  6
Continuous
 62
     0
370
     0
100
AcDbMText
 10
19.8778795174
 20
-0.5594606586
 30
0.0
 40
1.524
 41
0.0
 71
     2
 72
     1
  1
AND MAY CONTAIN ROUNDOFF ERRORS
  7
SLDTEXTSTYLE0
 73
     1
 44
1.0
  0
ENDBLK
  5
93
330
91
100
AcDbEntity
  8
0
100
AcDbBlockEnd
  0
BLOCK
  5
98
330
97
100
AcDbEntity
  8
0
100
AcDbBlockBegin
  2
SW_NOTE_2
 70
     0
 10
0.0
 20
0.0
 30
0.0
  3
SW_NOTE_2
  1

  0
MTEXT
  5
9A
330
97
100
AcDbEntity
  8
0
  6
Continuous
 62
     0
370
     0
100
AcDbMText
 10
0.0
 20
2.7285267159
 30
0.0
 40
2.1166666667
 41
0.0
 71
     1
 72
     1
  1
DRAWING
  7
SLDTEXTSTYLE0
 73
     1
 44
1.0
  0
MTEXT
  5
9B
330
97
100
AcDbEntity
  8
0
  6
Continuous
 62
     0
370
     0
100
AcDbMText
 10
0.0
 20
-0.0936954723
 30
0.0
 40
2.1166666667
 41
0.0
 71
     1
 72
     1
  1
PROJECTION
  7
SLDTEXTSTYLE0
 73
     1
 44
1.0
  0
ENDBLK
  5
99
330
97
100
AcDbEntity
  8
0
100
AcDbBlockEnd
  0
BLOCK
  5
9F
330
9E
100
AcDbEntity
  8
0
100
AcDbBlockBegin
  2
SW_NOTE_3
 70
     0
 10
0.0
 20
0.0
 30
0.0
  3
SW_NOTE_3
  1

  0
MTEXT
  5
A1
330
9E
100
AcDbEntity
  8
0
  6
Continuous
 62
     0
370
     0
100
AcDbMText
 10
25.052734375
 20
4.0927900738
 30
0.0
 40
3.175
 41
0.0
 71
     2
 72
     1
  1
FOR INFORMATION ONLY
  7
SLDTEXTSTYLE0
 73
     1
 44
1.0
  0
MTEXT
  5
A2
330
9E
100
AcDbEntity
  8
0
  6
Continuous
 62
     0
370
     0
100
AcDbMText
 10
25.3768468589
 20
-0.1405432084
 30
0.0
 40
3.175
 41
0.0
 71
     2
 72
     1
  1
NOT FOR MANUFACTURING PURPOSES
  7
SLDTEXTSTYLE0
 73
     1
 44
1.0
  0
ENDBLK
  5
A0
330
9E
100
AcDbEntity
  8
0
100
AcDbBlockEnd
  0
BLOCK
  5
A5
330
A4
100
AcDbEntity
  8
0
100
AcDbBlockBegin
  2
SW_NOTE_4
 70
     0
 10
0.0
 20
0.0
 30
0.0
  3
SW_NOTE_4
  1

  0
MTEXT
  5
A7
330
A4
100
AcDbEntity
  8
0
  6
Continuous
 62
     0
370
     0
100
AcDbMText
 10
22.6962890625
 20
3.4106583948
 30
0.0
 40
2.6458333333
 41
0.0
 71
     2
 72
     1
  1
5.0mm RIGHT ANGLE PRISM
  7
SLDTEXTSTYLE0
 73
     1
 44
1.0
  0
MTEXT
  5
A8
330
A4
100
AcDbEntity
  8
0
  6
Continuous
 62
     0
370
     0
100
AcDbMText
 10
23.0352855126
 20
-0.1171193403
 30
0.0
 40
2.6458333333
 41
0.0
 71
     2
 72
     1
  1
BROADBAND DIELECTRIC MIRROR
  7
SLDTEXTSTYLE0
 73
     1
 44
1.0
  0
ENDBLK
  5
A6
330
A4
100
AcDbEntity
  8
0
100
AcDbBlockEnd
  0
BLOCK
  5
BF
330
BE
100
AcDbEntity
  8
0
100
AcDbBlockBegin
  2
*D7
 70
     1
 10
0.0
 20
0.0
 30
0.0
  3
*D7
  1

  0
SOLID
  5
C1
330
BE
100
AcDbEntity
  8
0
  6
Continuous
 62
     7
370
     0
100
AcDbTrace
 10
180.4638307268
 20
117.5145216846
 30
0.0
 11
179.9558307268
 21
114.3395216846
 31
0.0
 12
180.9718307268
 22
114.3395216846
 32
0.0
 13
180.9718307268
 23
114.3395216846
 33
0.0
  0
SOLID
  5
C2
330
BE
100
AcDbEntity
  8
0
  6
Continuous
 62
     7
370
     0
100
AcDbTrace
 10
180.4638307268
 20
77.5145216846
 30
0.0
 11
180.9718307268
 21
80.6895216846
 31
0.0
 12
179.9558307268
 22
80.6895216846
 32
0.0
 13
179.9558307268
 23
80.6895216846
 33
0.0
  0
LINE
  5
C3
330
BE
100
AcDbEntity
  8
0
  6
Continuous
 62
     7
370
     0
100
AcDbLine
 10
176.0487184993
 20
97.5145214518
 30
0.0
 11
175.6195055396
 21
97.5145214518
 31
0.0
  0
LINE
  5
C4
330
BE
100
AcDbEntity
  8
0
  6
Continuous
 62
     7
370
     0
100
AcDbLine
 10
175.6195055396
 20
97.5145214518
 30
0.0
 11
175.6195055396
 21
94.1513733753
 31
0.0
  0
LINE
  5
C5
330
BE
100
AcDbEntity
  8
0
  6
Continuous
 62
     7
370
     0
100
AcDbLine
 10
175.6195055396
 20
94.1513733753
 30
0.0
 11
176.0487184993
 21
94.1513733753
 31
0.0
  0
LINE
  5
C6
330
BE
100
AcDbEntity
  8
0
  6
Continuous
 62
     7
370
     0
100
AcDbLine
 10
184.8789424885
 20
97.5145214518
 30
0.0
 11
185.3081554483
 21
97.5145214518
 31
0.0
  0
LINE
  5
C7
330
BE
100
AcDbEntity
  8
0
  6
Continuous
 62
     7
370
     0
100
AcDbLine
 10
185.3081554483
 20
97.5145214518
 30
0.0
 11
185.3081554483
 21
94.1513733753
 31
0.0
  0
LINE
  5
C8
330
BE
100
AcDbEntity
  8
0
  6
Continuous
 62
     7
370
     0
100
AcDbLine
 10
185.3081554483
 20
94.1513733753
 30
0.0
 11
184.8789424885
 21
94.1513733753
 31
0.0
  0
LINE
  5
C9
330
BE
100
AcDbEntity
  8
0
  6
Continuous
 62
     7
370
     0
100
AcDbLine
 10
189.1938307268
 20
117.5145216846
 30
0.0
 11
178.6858307268
 21
117.5145216846
 31
0.0
  0
LINE
  5
CA
330
BE
100
AcDbEntity
  8
0
  6
Continuous
 62
     7
370
     0
100
AcDbLine
 10
191.1938307268
 20
77.5145216846
 30
0.0
 11
178.6858307268
 21
77.5145216846
 31
0.0
  0
LINE
  5
CB
330
BE
100
AcDbEntity
  8
0
  6
Continuous
 62
     7
370
     0
100
AcDbLine
 10
180.4638307268
 20
117.5145216846
 30
0.0
 11
180.4638307268
 21
101.3068825752
 31
0.0
  0
LINE
  5
CC
330
BE
100
AcDbEntity
  8
0
  6
Continuous
 62
     7
370
     0
100
AcDbLine
 10
180.4638307268
 20
77.5145216846
 30
0.0
 11
180.4638307268
 21
93.7221607939
 31
0.0
  0
MTEXT
  5
CD
330
BE
100
AcDbEntity
  8
0
  6
Continuous
 62
     7
370
     0
100
AcDbMText
 10
175.033012327
 20
100.6722610982
 30
0.8
 40
2.1166666667
 41
0.0
 71
     1
 72
     1
  1

  7
SLDTEXTSTYLE0
 73
     1
 44
1.0
  0
MTEXT
  5
CE
330
BE
100
AcDbEntity
  8
0
  6
Continuous
 62
     7
370
     0
100
AcDbMText
 10
175.0055740314
 20
100.6722610982
 30
0.8
 40
2.1166666667
 41
0.0
 71
     1
 72
     1
  1
5.0mm
  7
SLDTEXTSTYLE0
 73
     1
 44
1.0
  0
MTEXT
  5
CF
330
BE
100
AcDbEntity
  8
0
  6
Continuous
 62
     7
370
     0
100
AcDbMText
 10
176.5852347208
 20
96.8798999747
 30
0.8
 40
2.1166666667
 41
0.0
 71
     1
 72
     1
  1
0.20in
  7
SLDTEXTSTYLE0
 73
     1
 44
1.0
  0
MTEXT
  5
D0
330
BE
100
AcDbEntity
  8
0
  6
Continuous
 62
     7
370
     0
100
AcDbMText
 10
187.5095869565
 20
100.6722610982
 30
0.8
 40
2.1166666667
 41
0.0
 71
     1
 72
     1
  1

  7
SLDTEXTSTYLE0
 73
     1
 44
1.0
  0
ENDBLK
  5
C0
330
BE
100
AcDbEntity
  8
0
100
AcDbBlockEnd
  0
BLOCK
  5
D4
330
D3
100
AcDbEntity
  8
0
100
AcDbBlockBegin
  2
*D8
 70
     1
 10
0.0
 20
0.0
 30
0.0
  3
*D8
  1

  0
SOLID
  5
D6
330
D3
100
AcDbEntity
  8
0
  6
Continuous
 62
     7
370
     0
100
AcDbTrace
 10
205.7713534303
 20
132.8220443881
 30
0.0
 11
207.6572072157
 21
130.217770113
 31
0.0
 12
208.3756277054
 22
130.9361906027
 32
0.0
 13
208.3756277054
 23
130.9361906027
 33
0.0
  0
SOLID
  5
D7
330
D3
100
AcDbEntity
  8
0
  6
Continuous
 62
     7
370
     0
100
AcDbTrace
 10
245.7713534303
 20
92.8220443881
 30
0.0
 11
243.8854996449
 21
95.4263186632
 31
0.0
 12
243.1670791552
 22
94.7078981735
 32
0.0
 13
243.1670791552
 23
94.7078981735
 33
0.0
  0
LINE
  5
D8
330
D3
100
AcDbEntity
  8
0
  6
Continuous
 62
     7
370
     0
100
AcDbLine
 10
221.3562412028
 20
112.8220441553
 30
0.0
 11
220.9270282431
 21
112.8220441553
 31
0.0
  0
LINE
  5
D9
330
D3
100
AcDbEntity
  8
0
  6
Continuous
 62
     7
370
     0
100
AcDbLine
 10
220.9270282431
 20
112.8220441553
 30
0.0
 11
220.9270282431
 21
109.4588960788
 31
0.0
  0
LINE
  5
DA
330
D3
100
AcDbEntity
  8
0
  6
Continuous
 62
     7
370
     0
100
AcDbLine
 10
220.9270282431
 20
109.4588960788
 30
0.0
 11
221.3562412028
 21
109.4588960788
 31
0.0
  0
LINE
  5
DB
330
D3
100
AcDbEntity
  8
0
  6
Continuous
 62
     7
370
     0
100
AcDbLine
 10
230.186465192
 20
112.8220441553
 30
0.0
 11
230.6156781518
 21
112.8220441553
 31
0.0
  0
LINE
  5
DC
330
D3
100
AcDbEntity
  8
0
  6
Continuous
 62
     7
370
     0
100
AcDbLine
 10
230.6156781518
 20
112.8220441553
 30
0.0
 11
230.6156781518
 21
109.4588960788
 31
0.0
  0
LINE
  5
DD
330
D3
100
AcDbEntity
  8
0
  6
Continuous
 62
     7
370
     0
100
AcDbLine
 10
230.6156781518
 20
109.4588960788
 30
0.0
 11
230.186465192
 21
109.4588960788
 31
0.0
  0
LINE
  5
DE
330
D3
100
AcDbEntity
  8
0
  6
Continuous
 62
     7
370
     0
100
AcDbLine
 10
191.3618563389
 20
118.4125472967
 30
0.0
 11
207.0285892872
 21
134.079280245
 31
0.0
  0
LINE
  5
DF
330
D3
100
AcDbEntity
  8
0
  6
Continuous
 62
     7
370
     0
100
AcDbLine
 10
231.3618563389
 20
78.4125472967
 30
0.0
 11
247.0285892872
 21
94.079280245
 31
0.0
  0
LINE
  5
E0
330
D3
100
AcDbEntity
  8
0
  6
Continuous
 62
     7
370
     0
100
AcDbLine
 10
205.7713534303
 20
132.8220443881
 30
0.0
 11
221.9789925396
 21
116.6144052788
 31
0.0
  0
LINE
  5
E1
330
D3
100
AcDbEntity
  8
0
  6
Continuous
 62
     7
370
     0
100
AcDbLine
 10
245.7713534303
 20
92.8220443881
 30
0.0
 11
229.5637143209
 21
109.0296834974
 31
0.0
  0
MTEXT
  5
E2
330
D3
100
AcDbEntity
  8
0
  6
Continuous
 62
     7
370
     0
100
AcDbMText
 10
220.3405350305
 20
115.9797838017
 30
0.8
 40
2.1166666667
 41
0.0
 71
     1
 72
     1
  1

  7
SLDTEXTSTYLE0
 73
     1
 44
1.0
  0
MTEXT
  5
E3
330
D3
100
AcDbEntity
  8
0
  6
Continuous
 62
     7
370
     0
100
AcDbMText
 10
220.3130967349
 20
115.9797838017
 30
0.8
 40
2.1166666667
 41
0.0
 71
     1
 72
     1
  1
7.1mm
  7
SLDTEXTSTYLE0
 73
     1
 44
1.0
  0
MTEXT
  5
E4
330
D3
100
AcDbEntity
  8
0
  6
Continuous
 62
     7
370
     0
100
AcDbMText
 10
221.8927574243
 20
112.1874226782
 30
0.8
 40
2.1166666667
 41
0.0
 71
     1
 72
     1
  1
0.28in
  7
SLDTEXTSTYLE0
 73
     1
 44
1.0
  0
MTEXT
  5
E5
330
D3
100
AcDbEntity
  8
0
  6
Continuous
 62
     7
370
     0
100
AcDbMText
 10
232.81710966
 20
115.9797838017
 30
0.8
 40
2.1166666667
 41
0.0
 71
     1
 72
     1
  1

  7
SLDTEXTSTYLE0
 73
     1
 44
1.0
  0
ENDBLK
  5
D5
330
D3
100
AcDbEntity
  8
0
100
AcDbBlockEnd
  0
BLOCK
  5
E8
330
E7
100
AcDbEntity
  8
0
100
AcDbBlockBegin
  2
*D9
 70
     1
 10
0.0
 20
0.0
 30
0.0
  3
*D9
  1

  0
SOLID
  5
EA
330
E7
100
AcDbEntity
  8
0
  6
Continuous
 62
     7
370
     0
100
AcDbTrace
 10
230.4638307268
 20
67.5145216846
 30
0.0
 11
227.2888307268
 21
68.0225216846
 31
0.0
 12
227.2888307268
 22
67.0065216846
 32
0.0
 13
227.2888307268
 23
67.0065216846
 33
0.0
  0
SOLID
  5
EB
330
E7
100
AcDbEntity
  8
0
  6
Continuous
 62
     7
370
     0
100
AcDbTrace
 10
190.4638307268
 20
67.5145216846
 30
0.0
 11
193.6388307268
 21
67.0065216846
 31
0.0
 12
193.6388307268
 22
68.0225216846
 32
0.0
 13
193.6388307268
 23
68.0225216846
 33
0.0
  0
LINE
  5
EC
330
E7
100
AcDbEntity
  8
0
  6
Continuous
 62
     7
370
     0
100
AcDbLine
 10
206.0487184993
 20
67.5145214518
 30
0.0
 11
205.6195055396
 21
67.5145214518
 31
0.0
  0
LINE
  5
ED
330
E7
100
AcDbEntity
  8
0
  6
Continuous
 62
     7
370
     0
100
AcDbLine
 10
205.6195055396
 20
67.5145214518
 30
0.0
 11
205.6195055396
 21
64.1513733753
 31
0.0
  0
LINE
  5
EE
330
E7
100
AcDbEntity
  8
0
  6
Continuous
 62
     7
370
     0
100
AcDbLine
 10
205.6195055396
 20
64.1513733753
 30
0.0
 11
206.0487184993
 21
64.1513733753
 31
0.0
  0
LINE
  5
EF
330
E7
100
AcDbEntity
  8
0
  6
Continuous
 62
     7
370
     0
100
AcDbLine
 10
214.8789424885
 20
67.5145214518
 30
0.0
 11
215.3081554483
 21
67.5145214518
 31
0.0
  0
LINE
  5
F0
330
E7
100
AcDbEntity
  8
0
  6
Continuous
 62
     7
370
     0
100
AcDbLine
 10
215.3081554483
 20
67.5145214518
 30
0.0
 11
215.3081554483
 21
64.1513733753
 31
0.0
  0
LINE
  5
F1
330
E7
100
AcDbEntity
  8
0
  6
Continuous
 62
     7
370
     0
100
AcDbLine
 10
215.3081554483
 20
64.1513733753
 30
0.0
 11
214.8789424885
 21
64.1513733753
 31
0.0
  0
LINE
  5
F2
330
E7
100
AcDbEntity
  8
0
  6
Continuous
 62
     7
370
     0
100
AcDbLine
 10
230.4638307268
 20
76.2445216846
 30
0.0
 11
230.4638307268
 21
65.7365216846
 31
0.0
  0
LINE
  5
F3
330
E7
100
AcDbEntity
  8
0
  6
Continuous
 62
     7
370
     0
100
AcDbLine
 10
190.4638307268
 20
78.2445216846
 30
0.0
 11
190.4638307268
 21
65.7365216846
 31
0.0
  0
LINE
  5
F4
330
E7
100
AcDbEntity
  8
0
  6
Continuous
 62
     7
370
     0
100
AcDbLine
 10
230.4638307268
 20
67.5145216846
 30
0.0
 11
217.9114663759
 21
67.5145216846
 31
0.0
  0
LINE
  5
F5
330
E7
100
AcDbEntity
  8
0
  6
Continuous
 62
     7
370
     0
100
AcDbLine
 10
190.4638307268
 20
67.5145216846
 30
0.0
 11
203.0161950777
 21
67.5145216846
 31
0.0
  0
MTEXT
  5
F6
330
E7
100
AcDbEntity
  8
0
  6
Continuous
 62
     7
370
     0
100
AcDbMText
 10
205.033012327
 20
70.6722610982
 30
0.8
 40
2.1166666667
 41
0.0
 71
     1
 72
     1
  1

  7
SLDTEXTSTYLE0
 73
     1
 44
1.0
  0
MTEXT
  5
F7
330
E7
100
AcDbEntity
  8
0
  6
Continuous
 62
     7
370
     0
100
AcDbMText
 10
205.0055740314
 20
70.6722610982
 30
0.8
 40
2.1166666667
 41
0.0
 71
     1
 72
     1
  1
5.0mm
  7
SLDTEXTSTYLE0
 73
     1
 44
1.0
  0
MTEXT
  5
F8
330
E7
100
AcDbEntity
  8
0
  6
Continuous
 62
     7
370
     0
100
AcDbMText
 10
206.5852347208
 20
66.8798999747
 30
0.8
 40
2.1166666667
 41
0.0
 71
     1
 72
     1
  1
0.20in
  7
SLDTEXTSTYLE0
 73
     1
 44
1.0
  0
MTEXT
  5
F9
330
E7
100
AcDbEntity
  8
0
  6
Continuous
 62
     7
370
     0
100
AcDbMText
 10
217.5095869565
 20
70.6722610982
 30
0.8
 40
2.1166666667
 41
0.0
 71
     1
 72
     1
  1

  7
SLDTEXTSTYLE0
 73
     1
 44
1.0
  0
ENDBLK
  5
E9
330
E7
100
AcDbEntity
  8
0
100
AcDbBlockEnd
  0
BLOCK
  5
FD
330
FC
100
AcDbEntity
  8
0
100
AcDbBlockBegin
  2
*D10
 70
     1
 10
0.0
 20
0.0
 30
0.0
  3
*D10
  1

  0
ARC
  5
FF
330
FC
100
AcDbEntity
  8
0
  6
Continuous
 62
     7
370
     0
100
AcDbCircle
 10
230.4638307268
 20
77.5145216846
 30
0.0
 40
82.26646791998358
100
AcDbArc
 50
135.0
 51
155.8993159481
  0
ARC
  5
100
330
FC
100
AcDbEntity
  8
0
  6
Continuous
 62
     7
370
     0
100
AcDbCircle
 10
230.4638307268
 20
77.5145216846
 30
0.0
 40
82.26646791998354
100
AcDbArc
 50
159.0823658596
 51
180.0
  0
SOLID
  5
101
330
FC
100
AcDbEntity
  8
0
  6
Continuous
 62
     7
370
     0
100
AcDbTrace
 10
172.2926533963
 20
135.6856990151
 30
0.0
 11
169.725234614
 21
133.7499692312
 31
0.0
 12
170.4573771379
 22
133.0455380247
 32
0.0
 13
170.4573771379
 23
133.0455380247
 33
0.0
  0
SOLID
  5
102
330
FC
100
AcDbEntity
  8
0
  6
Continuous
 62
     7
370
     0
100
AcDbTrace
 10
148.1973628068
 20
77.5145216846
 30
0.0
 11
148.7665022589
 21
80.679133712
 31
0.0
 12
147.7506912324
 22
80.6987285724
 32
0.0
 13
147.7506912324
 23
80.6987285724
 33
0.0
  0
LINE
  5
103
330
FC
100
AcDbEntity
  8
0
  6
Continuous
 62
     7
370
     0
100
AcDbLine
 10
153.923008582
 20
107.3149619294
 30
0.0
 11
153.4937956223
 21
107.3149619294
 31
0.0
  0
LINE
  5
104
330
FC
100
AcDbEntity
  8
0
  6
Continuous
 62
     7
370
     0
100
AcDbLine
 10
153.4937956223
 20
107.3149619294
 30
0.0
 11
153.923008582
 21
107.3149619294
 31
0.0
  0
LINE
  5
105
330
FC
100
AcDbEntity
  8
0
  6
Continuous
 62
     7
370
     0
100
AcDbLine
 10
154.996041025
 20
107.3149619294
 30
0.0
 11
155.4252539847
 21
107.3149619294
 31
0.0
  0
LINE
  5
106
330
FC
100
AcDbEntity
  8
0
  6
Continuous
 62
     7
370
     0
100
AcDbLine
 10
155.4252539847
 20
107.3149619294
 30
0.0
 11
154.996041025
 21
107.3149619294
 31
0.0
  0
LINE
  5
107
330
FC
100
AcDbEntity
  8
0
  6
Continuous
 62
     7
370
     0
100
AcDbLine
 10
190.980018677
 20
116.9983337343
 30
0.0
 11
171.0354175393
 21
136.942934872
 31
0.0
  0
LINE
  5
108
330
FC
100
AcDbEntity
  8
0
  6
Continuous
 62
     7
370
     0
100
AcDbLine
 10
191.1938307268
 20
77.5145216846
 30
0.0
 11
146.4193628068
 21
77.5145216846
 31
0.0
  0
MTEXT
  5
109
330
FC
100
AcDbEntity
  8
0
  6
Continuous
 62
     7
370
     0
100
AcDbMText
 10
149.2325337997
 20
110.4727014886
 30
0.8
 40
2.1166666667
 41
0.0
 71
     1
 72
     1
  1

  7
SLDTEXTSTYLE0
 73
     1
 44
1.0
  0
MTEXT
  5
10A
330
FC
100
AcDbEntity
  8
0
  6
Continuous
 62
     7
370
     0
100
AcDbMText
 10
149.2050955041
 20
110.4727014886
 30
0.8
 40
2.1166666667
 41
0.0
 71
     1
 72
     1
  1
45deg
  7
SLDTEXTSTYLE0
 73
     1
 44
1.0
  0
MTEXT
  5
10B
330
FC
100
AcDbEntity
  8
0
  6
Continuous
 62
     7
370
     0
100
AcDbMText
 10
161.3014536372
 20
110.4727014886
 30
0.8
 40
2.1166666667
 41
0.0
 71
     1
 72
     1
  1

  7
SLDTEXTSTYLE0
 73
     1
 44
1.0
  0
ENDBLK
  5
FE
330
FC
100
AcDbEntity
  8
0
100
AcDbBlockEnd
  0
BLOCK
  5
120
330
11F
100
AcDbEntity
  8
0
100
AcDbBlockBegin
  2
*D11
 70
     1
 10
0.0
 20
0.0
 30
0.0
  3
*D11
  1

  0
SOLID
  5
122
330
11F
100
AcDbEntity
  8
0
  6
Continuous
 62
     7
370
     0
100
AcDbTrace
 10
38.1624949402
 20
67.5145216846
 30
0.0
 11
41.3374949402
 21
67.0065216846
 31
0.0
 12
41.3374949402
 22
68.0225216846
 32
0.0
 13
41.3374949402
 23
68.0225216846
 33
0.0
  0
SOLID
  5
123
330
11F
100
AcDbEntity
  8
0
  6
Continuous
 62
     7
370
     0
100
AcDbTrace
 10
78.1624949402
 20
67.5145216846
 30
0.0
 11
74.9874949402
 21
68.0225216846
 31
0.0
 12
74.9874949402
 22
67.0065216846
 32
0.0
 13
74.9874949402
 23
67.0065216846
 33
0.0
  0
LINE
  5
124
330
11F
100
AcDbEntity
  8
0
  6
Continuous
 62
     7
370
     0
100
AcDbLine
 10
53.7473827128
 20
67.5145214518
 30
0.0
 11
53.3181697531
 21
67.5145214518
 31
0.0
  0
LINE
  5
125
330
11F
100
AcDbEntity
  8
0
  6
Continuous
 62
     7
370
     0
100
AcDbLine
 10
53.3181697531
 20
67.5145214518
 30
0.0
 11
53.3181697531
 21
64.1513733753
 31
0.0
  0
LINE
  5
126
330
11F
100
AcDbEntity
  8
0
  6
Continuous
 62
     7
370
     0
100
AcDbLine
 10
53.3181697531
 20
64.1513733753
 30
0.0
 11
53.7473827128
 21
64.1513733753
 31
0.0
  0
LINE
  5
127
330
11F
100
AcDbEntity
  8
0
  6
Continuous
 62
     7
370
     0
100
AcDbLine
 10
62.577606702
 20
67.5145214518
 30
0.0
 11
63.0068196617
 21
67.5145214518
 31
0.0
  0
LINE
  5
128
330
11F
100
AcDbEntity
  8
0
  6
Continuous
 62
     7
370
     0
100
AcDbLine
 10
63.0068196617
 20
67.5145214518
 30
0.0
 11
63.0068196617
 21
64.1513733753
 31
0.0
  0
LINE
  5
129
330
11F
100
AcDbEntity
  8
0
  6
Continuous
 62
     7
370
     0
100
AcDbLine
 10
63.0068196617
 20
64.1513733753
 30
0.0
 11
62.577606702
 21
64.1513733753
 31
0.0
  0
LINE
  5
12A
330
11F
100
AcDbEntity
  8
0
  6
Continuous
 62
     7
370
     0
100
AcDbLine
 10
38.1624949402
 20
78.2445216846
 30
0.0
 11
38.1624949402
 21
65.7365216846
 31
0.0
  0
LINE
  5
12B
330
11F
100
AcDbEntity
  8
0
  6
Continuous
 62
     7
370
     0
100
AcDbLine
 10
78.1624949402
 20
78.2445216846
 30
0.0
 11
78.1624949402
 21
65.7365216846
 31
0.0
  0
LINE
  5
12C
330
11F
100
AcDbEntity
  8
0
  6
Continuous
 62
     7
370
     0
100
AcDbLine
 10
38.1624949402
 20
67.5145216846
 30
0.0
 11
50.7148592911
 21
67.5145216846
 31
0.0
  0
LINE
  5
12D
330
11F
100
AcDbEntity
  8
0
  6
Continuous
 62
     7
370
     0
100
AcDbLine
 10
78.1624949402
 20
67.5145216846
 30
0.0
 11
65.6101305893
 21
67.5145216846
 31
0.0
  0
MTEXT
  5
12E
330
11F
100
AcDbEntity
  8
0
  6
Continuous
 62
     7
370
     0
100
AcDbMText
 10
52.7316765404
 20
70.6722610982
 30
10.3
 40
2.1166666667
 41
0.0
 71
     1
 72
     1
  1

  7
SLDTEXTSTYLE0
 73
     1
 44
1.0
  0
MTEXT
  5
12F
330
11F
100
AcDbEntity
  8
0
  6
Continuous
 62
     7
370
     0
100
AcDbMText
 10
52.7042382448
 20
70.6722610982
 30
10.3
 40
2.1166666667
 41
0.0
 71
     1
 72
     1
  1
5.0mm
  7
SLDTEXTSTYLE0
 73
     1
 44
1.0
  0
MTEXT
  5
130
330
11F
100
AcDbEntity
  8
0
  6
Continuous
 62
     7
370
     0
100
AcDbMText
 10
54.2838989342
 20
66.8798999747
 30
10.3
 40
2.1166666667
 41
0.0
 71
     1
 72
     1
  1
0.20in
  7
SLDTEXTSTYLE0
 73
     1
 44
1.0
  0
MTEXT
  5
131
330
11F
100
AcDbEntity
  8
0
  6
Continuous
 62
     7
370
     0
100
AcDbMText
 10
65.20825117
 20
70.6722610982
 30
10.3
 40
2.1166666667
 41
0.0
 71
     1
 72
     1
  1

  7
SLDTEXTSTYLE0
 73
     1
 44
1.0
  0
ENDBLK
  5
121
330
11F
100
AcDbEntity
  8
0
100
AcDbBlockEnd
  0
ENDSEC
  0
SECTION
  2
ENTITIES
  0
LINE
  5
52
330
1F
100
AcDbEntity
  8
0
  6
Continuous
 62
     7
370
     0
100
AcDbLine
 10
1.5793501011
 20
214.6453799966
 30
0.0
 11
277.9892068491
 21
214.6453799966
 31
0.0
  0
LINE
  5
53
330
1F
100
AcDbEntity
  8
0
  6
Continuous
 62
     7
370
     0
100
AcDbLine
 10
1.5793501011
 20
214.6453799966
 30
0.0
 11
1.5793501011
 21
0.9031642596
 31
0.0
  0
LINE
  5
54
330
1F
100
AcDbEntity
  8
0
  6
Continuous
 62
     7
370
     0
100
AcDbLine
 10
277.9892068491
 20
0.9031642596
 30
0.0
 11
1.5793501011
 21
0.9031642596
 31
0.0
  0
LINE
  5
55
330
1F
100
AcDbEntity
  8
0
  6
Continuous
 62
     7
370
     0
100
AcDbLine
 10
277.9892068491
 20
0.9031642596
 30
0.0
 11
277.9892068491
 21
214.6453799966
 31
0.0
  0
LINE
  5
56
330
1F
100
AcDbEntity
  8
0
  6
Continuous
 62
     7
370
     0
100
AcDbLine
 10
215.7427640041
 20
12.2958890132
 30
0.0
 11
171.6327596684
 21
12.2958890132
 31
0.0
  0
LINE
  5
57
330
1F
100
AcDbEntity
  8
0
  6
Continuous
 62
     7
370
     0
100
AcDbLine
 10
171.6327596684
 20
12.2958890132
 30
0.0
 11
171.6327596684
 21
26.1661402506
 31
0.0
  0
LINE
  5
58
330
1F
100
AcDbEntity
  8
0
  6
Continuous
 62
     7
370
     0
100
AcDbLine
 10
171.6327596684
 20
0.9031642596
 30
0.0
 11
171.6327596684
 21
26.1661402506
 31
0.0
  0
LINE
  5
59
330
1F
100
AcDbEntity
  8
0
  6
Continuous
 62
     7
370
     0
100
AcDbLine
 10
215.7427640041
 20
17.1604579552
 30
0.0
 11
277.9892068491
 21
17.1604579552
 31
0.0
  0
LINE
  5
5A
330
1F
100
AcDbEntity
  8
0
  6
Continuous
 62
     7
370
     0
100
AcDbLine
 10
215.7427640041
 20
35.2394508358
 30
0.0
 11
215.7427640041
 21
0.9031642596
 31
0.0
  0
LINE
  5
5B
330
1F
100
AcDbEntity
  8
0
  6
Continuous
 62
     7
370
     0
100
AcDbLine
 10
215.7427640041
 20
26.1661402506
 30
0.0
 11
171.6327596684
 21
26.1661402506
 31
0.0
  0
LINE
  5
5C
330
1F
100
AcDbEntity
  8
0
  6
Continuous
 62
     7
370
     0
100
AcDbLine
 10
215.7427640041
 20
9.1409200612
 30
0.0
 11
277.9892068491
 21
9.1409200612
 31
0.0
  0
LINE
  5
5D
330
1F
100
AcDbEntity
  8
0
  6
Continuous
 62
     7
370
     0
100
AcDbLine
 10
215.7427640041
 20
16.9216824031
 30
0.0
 11
171.6327596684
 21
16.9216824031
 31
0.0
  0
LINE
  5
5E
330
1F
100
AcDbEntity
  8
0
  6
Continuous
 62
     7
370
     0
100
AcDbLine
 10
215.7427640041
 20
21.4874005542
 30
0.0
 11
171.6327596684
 21
21.4874005542
 31
0.0
  0
LINE
  5
5F
330
1F
100
AcDbEntity
  8
0
  6
Continuous
 62
     7
370
     0
100
AcDbLine
 10
186.1338100705
 20
26.1661402506
 30
0.0
 11
186.1338100705
 21
12.2958890132
 31
0.0
  0
LINE
  5
60
330
1F
100
AcDbEntity
  8
0
  6
Continuous
 62
     7
370
     0
100
AcDbLine
 10
198.2145906188
 20
26.1661402506
 30
0.0
 11
198.2145906188
 21
12.2958890132
 31
0.0
  0
LINE
  5
61
330
1F
100
AcDbEntity
  8
0
  6
Continuous
 62
     7
370
     0
100
AcDbLine
 10
253.7490408369
 20
9.1409200612
 30
0.0
 11
253.7490408369
 21
0.9031642596
 31
0.0
  0
LINE
  5
62
330
1F
100
AcDbEntity
  8
0
  6
Continuous
 62
     7
370
     0
100
AcDbLine
 10
171.6327596684
 20
12.2958890132
 30
0.0
 11
171.6327596684
 21
7.5627342528
 31
0.0
  0
LINE
  5
63
330
1F
100
AcDbEntity
  8
0
  6
Continuous
 62
     7
370
     0
100
AcDbLine
 10
171.6327596684
 20
7.5627342528
 30
0.0
 11
215.7427640041
 21
7.5627342528
 31
0.0
  0
LINE
  5
64
330
1F
100
AcDbEntity
  8
0
  6
Continuous
 62
     7
370
     0
100
AcDbLine
 10
171.6327596684
 20
7.5627342528
 30
0.0
 11
171.6327596684
 21
35.2394508358
 31
0.0
  0
LINE
  5
65
330
1F
100
AcDbEntity
  8
0
  6
Continuous
 62
     7
370
     0
100
AcDbLine
 10
171.6327596684
 20
35.2394508358
 30
0.0
 11
215.7427640041
 21
35.2394508358
 31
0.0
  0
LINE
  5
66
330
1F
100
AcDbEntity
  8
0
  6
Continuous
 62
     7
370
     0
100
AcDbLine
 10
270.1683598194
 20
17.1604579552
 30
0.0
 11
270.1683598194
 21
9.1409200612
 31
0.0
  0
LINE
  5
67
330
1F
100
AcDbEntity
  8
0
  6
Continuous
 62
     7
370
     0
100
AcDbLine
 10
215.7427640041
 20
35.2394508358
 30
0.0
 11
277.9892068491
 21
35.2394508358
 31
0.0
  0
LINE
  5
68
330
1F
100
AcDbEntity
  8
0
  6
Continuous
 62
     7
370
     0
100
AcDbLine
 10
277.9892068491
 20
35.2394508358
 30
0.0
 11
277.9892068491
 21
50.0331356147
 31
0.0
  0
LINE
  5
69
330
1F
100
AcDbEntity
  8
0
  6
Continuous
 62
     7
370
     0
100
AcDbLine
 10
215.7427640041
 20
24.8927335446
 30
0.0
 11
277.9892068491
 21
24.8927335446
 31
0.0
  0
INSERT
  5
6A
330
1F
100
AcDbEntity
  8
0
  6
Continuous
 62
     7
100
AcDbBlockReference
  2
Third Angle Projection Block
 10
117.7262204235
 20
15.5162339489
 30
0.0
 41
0.8
 42
0.8
 43
0.8
  0
INSERT
  5
81
330
1F
100
AcDbEntity
  8
0
  6
Continuous
 62
     7
370
     0
100
AcDbBlockReference
  2
SW_NOTE_0
 10
8.4889370081
 20
41.1881554056
 30
0.0
  0
MTEXT
  5
82
330
1F
100
AcDbEntity
  8
0
  6
Continuous
 62
     7
370
     0
100
AcDbMText
 10
274.2755418848
 20
13.2559386876
 30
0.0
 40
3.175
 41
0.0
 71
     2
 72
     1
  1
B
  7
SLDTEXTSTYLE0
 73
     1
 44
1.0
  0
MTEXT
  5
83
330
1F
100
AcDbEntity
  8
0
  6
Continuous
 62
     7
370
     0
100
AcDbMText
 10
234.4451659403
 20
5.1306563898
 30
0.0
 40
3.175
 41
0.0
 71
     2
 72
     1
  1
MRA05-E02
  7
SLDTEXTSTYLE0
 73
     1
 44
1.0
  0
MTEXT
  5
84
330
1F
100
AcDbEntity
  8
0
  6
Continuous
 62
     7
370
     0
100
AcDbMText
 10
216.4199766059
 20
16.8243178599
 30
0.0
 40
2.1166666667
 41
0.0
 71
     1
 72
     1
  1
MATERIAL
  7
SLDTEXTSTYLE0
 73
     1
 44
1.0
  0
MTEXT
  5
85
330
1F
100
AcDbEntity
  8
0
  6
Continuous
 62
     7
370
     0
100
AcDbMText
 10
174.230946566
 20
20.054553926
 30
0.0
 40
1.8520833333
 41
0.0
 71
     1
 72
     1
  1
DRAWN
  7
SLDTEXTSTYLE0
 73
     1
 44
1.0
  0
MTEXT
  5
86
330
1F
100
AcDbEntity
  8
0
  6
Continuous
 62
     7
370
     0
100
AcDbMText
 10
172.3960124543
 20
15.5787169747
 30
0.0
 40
1.8520833333
 41
0.0
 71
     1
 72
     1
  1
APPROVAL
  7
SLDTEXTSTYLE0
 73
     1
 44
1.0
  0
MTEXT
  5
87
330
1F
100
AcDbEntity
  8
0
  6
Continuous
 62
     7
370
     0
100
AcDbMText
 10
271.7160653675
 20
16.1671746307
 30
0.0
 40
2.1166666667
 41
0.0
 71
     1
 72
     1
  1
REV
  7
SLDTEXTSTYLE0
 73
     1
 44
1.0
  0
MTEXT
  5
88
330
1F
100
AcDbEntity
  8
0
  6
Continuous
 62
     7
370
     0
100
AcDbMText
 10
190.2958696448
 20
20.3177146903
 30
0.0
 40
2.1166666667
 41
0.0
 71
     1
 72
     1
  1
EMT
  7
SLDTEXTSTYLE0
 73
     1
 44
1.0
  0
MTEXT
  5
89
330
1F
100
AcDbEntity
  8
0
  6
Continuous
 62
     7
370
     0
100
AcDbMText
 10
199.8662436873
 20
20.3177146903
 30
0.0
 40
2.1166666667
 41
0.0
 71
     1
 72
     1
  1
09/MAY/12
  7
SLDTEXTSTYLE0
 73
     1
 44
1.0
  0
MTEXT
  5
8A
330
1F
100
AcDbEntity
  8
0
  6
Continuous
 62
     7
370
     0
100
AcDbMText
 10
203.6145073853
 20
24.8221395769
 30
0.0
 40
2.1166666667
 41
0.0
 71
     1
 72
     1
  1
DATE
  7
SLDTEXTSTYLE0
 73
     1
 44
1.0
  0
MTEXT
  5
8C
330
1F
100
AcDbEntity
  8
0
  6
Continuous
 62
     7
370
     0
100
AcDbMText
 10
229.402906477
 20
27.7957480569
 30
0.0
 40
2.1166666667
 41
0.0
 71
     1
 72
     1
  1
w w w . t h o r  l a b s . c o m
  7
SLDTEXTSTYLE3
 73
     1
 44
1.0
  0
MTEXT
  5
8D
330
1F
100
AcDbEntity
  8
0
  6
Continuous
 62
     7
370
     0
100
AcDbMText
 10
216.7004035316
 20
8.3494791871
 30
0.0
 40
2.1166666667
 41
0.0
 71
     1
 72
     1
  1
ITEM #
  7
SLDTEXTSTYLE0
 73
     1
 44
1.0
  0
MTEXT
  5
8E
330
1F
100
AcDbEntity
  8
0
  6
Continuous
 62
     7
370
     0
100
AcDbMText
 10
254.5318000914
 20
8.3494791871
 30
0.0
 40
2.1166666667
 41
0.0
 71
     1
 72
     1
  1
APPROX WEIGHT
  7
SLDTEXTSTYLE0
 73
     1
 44
1.0
  0
MTEXT
  5
8F
330
1F
100
AcDbEntity
  8
0
  6
Continuous
 62
     7
370
     0
100
AcDbMText
 10
243.5159064132
 20
13.8247651814
 30
0.0
 40
3.175
 41
0.0
 71
     2
 72
     1
  1
N-BK7
  7
SLDTEXTSTYLE0
 73
     1
 44
1.0
  0
MTEXT
  5
90
330
1F
100
AcDbEntity
  8
0
  6
Continuous
 62
     7
370
     0
100
AcDbMText
 10
266.1039080522
 20
5.1306563898
 30
0.0
 40
3.175
 41
0.0
 71
     2
 72
     1
  1
0.0001 kg
  7
SLDTEXTSTYLE0
 73
     1
 44
1.0
  0
INSERT
  5
96
330
1F
100
AcDbEntity
  8
0
  6
Continuous
 62
     7
370
     0
100
AcDbBlockReference
  2
SW_NOTE_1
 10
174.8430140051
 20
4.4558554801
 30
0.0
  0
INSERT
  5
9C
330
1F
100
AcDbEntity
  8
0
  6
Continuous
 62
     7
370
     0
100
AcDbBlockReference
  2
SW_NOTE_2
 10
174.5483650337
 20
30.4835322715
 30
0.0
  0
MTEXT
  5
9D
330
1F
100
AcDbEntity
  8
0
  6
Continuous
 62
     7
370
     0
100
AcDbMText
 10
187.9273588276
 20
24.8221395769
 30
0.0
 40
2.1166666667
 41
0.0
 71
     1
 72
     1
  1
NAME
  7
SLDTEXTSTYLE0
 73
     1
 44
1.0
  0
INSERT
  5
A3
330
1F
100
AcDbEntity
  8
0
  6
Continuous
 62
     7
370
     0
100
AcDbBlockReference
  2
SW_NOTE_3
 10
58.6204667508
 20
8.1776609732
 30
0.0
  0
INSERT
  5
A9
330
1F
100
AcDbEntity
  8
0
  6
Continuous
 62
     7
370
     0
100
AcDbBlockReference
  2
SW_NOTE_4
 10
224.8563842293
 20
20.9611555011
 30
0.0
  0
MTEXT
  5
AA
330
1F
100
AcDbEntity
  8
0
  6
Continuous
 62
     7
370
     0
100
AcDbMText
 10
177.6925831922
 20
10.7142101515
 30
0.0
 40
1.5875
 41
0.0
 71
     1
 72
     1
  1
COPYRIGHT © 2012 BY THORLABS
  7
SLDTEXTSTYLE0
 73
     1
 44
1.0
  0
MTEXT
  5
AB
330
1F
100
AcDbEntity
  8
0
  6
Continuous
 62
     7
370
     0
100
AcDbMText
 10
190.2958696448
 20
15.841877739
 30
0.0
 40
2.1166666667
 41
0.0
 71
     1
 72
     1
  1
WD
  7
SLDTEXTSTYLE0
 73
     1
 44
1.0
  0
MTEXT
  5
AC
330
1F
100
AcDbEntity
  8
0
  6
Continuous
 62
     7
370
     0
100
AcDbMText
 10
199.5
 20
15.841877739
 30
0.0
 40
2.1166666667
 41
0.0
 71
     1
 72
     1
  1
12/JUL/12
  7
SLDTEXTSTYLE0
 73
     1
 44
1.0
  0
LINE
  5
AD
330
1F
100
AcDbEntity
  8
0
  6
Continuous
 62
     7
370
     0
100
AcDbLine
 10
191.8780442798
 20
116.1003076845
 30
0.0
 11
192.4638303468
 21
112.6860940271
 31
0.0
  0
LINE
  5
AE
330
1F
100
AcDbEntity
  8
0
  6
Continuous
 62
     7
370
     0
100
AcDbLine
 10
190.4638309503
 20
116.1003076845
 30
0.0
 11
192.4638303468
 21
112.6860940271
 31
0.0
  0
LINE
  5
AF
330
1F
100
AcDbEntity
  8
0
  6
Continuous
 62
     7
370
     0
100
AcDbLine
 10
191.8780442798
 20
116.1003076845
 30
0.0
 11
190.4638309503
 21
116.1003076845
 31
0.0
  0
LINE
  5
B0
330
1F
100
AcDbEntity
  8
0
  6
Continuous
 62
     7
370
     0
100
AcDbLine
 10
192.4638303468
 20
79.5145213046
 30
0.0
 11
225.6354030693
 21
79.5145213046
 31
0.0
  0
LINE
  5
B1
330
1F
100
AcDbEntity
  8
0
  6
Continuous
 62
     7
370
     0
100
AcDbLine
 10
192.4638303468
 20
112.6860940271
 30
0.0
 11
192.4638303468
 21
79.5145213046
 31
0.0
  0
LINE
  5
B2
330
1F
100
AcDbEntity
  8
0
  6
Continuous
 62
     7
370
     0
100
AcDbLine
 10
225.6354030693
 20
79.5145213046
 30
0.0
 11
192.4638303468
 21
112.6860940271
 31
0.0
  0
LINE
  5
B3
330
1F
100
AcDbEntity
  8
0
  6
Continuous
 62
     7
370
     0
100
AcDbLine
 10
229.4638298923
 20
78.514522072
 30
0.0
 11
228.463831591
 21
77.5145219081
 31
0.0
  0
LINE
  5
B4
330
1F
100
AcDbEntity
  8
0
  6
Continuous
 62
     7
370
     0
100
AcDbLine
 10
225.6354030693
 20
79.5145213046
 30
0.0
 11
228.463831591
 21
77.5145219081
 31
0.0
  0
LINE
  5
B5
330
1F
100
AcDbEntity
  8
0
  6
Continuous
 62
     7
370
     0
100
AcDbLine
 10
229.4638298923
 20
78.514522072
 30
0.0
 11
225.6354030693
 21
79.5145213046
 31
0.0
  0
LINE
  5
B6
330
1F
100
AcDbEntity
  8
0
  6
Continuous
 62
     7
370
     0
100
AcDbLine
 10
192.4638303468
 20
79.5145213046
 30
0.0
 11
190.4638309503
 21
79.5145213046
 31
0.0
  0
LINE
  5
B7
330
1F
100
AcDbEntity
  8
0
  6
Continuous
 62
     7
370
     0
100
AcDbLine
 10
190.4638309503
 20
79.5145213046
 30
0.0
 11
190.4638309503
 21
116.1003076845
 31
0.0
  0
LINE
  5
B8
330
1F
100
AcDbEntity
  8
0
  6
Continuous
 62
     7
370
     0
100
AcDbLine
 10
191.8780442798
 20
116.1003076845
 30
0.0
 11
229.4638298923
 21
78.514522072
 31
0.0
  0
LINE
  5
B9
330
1F
100
AcDbEntity
  8
0
  6
Continuous
 62
     7
370
     0
100
AcDbLine
 10
192.4638303468
 20
79.5145213046
 30
0.0
 11
192.4638303468
 21
77.5145219081
 31
0.0
  0
LINE
  5
BA
330
1F
100
AcDbEntity
  8
0
  6
Continuous
 62
     7
370
     0
100
AcDbLine
 10
190.4638309503
 20
79.5145213046
 30
0.0
 11
192.4638303468
 21
77.5145219081
 31
0.0
  0
LINE
  5
BB
330
1F
100
AcDbEntity
  8
0
  6
Continuous
 62
     7
370
     0
100
AcDbLine
 10
228.463831591
 20
77.5145219081
 30
0.0
 11
192.4638303468
 21
77.5145219081
 31
0.0
  0
DIMENSION
  5
BC
330
1F
100
AcDbEntity
  8
0
  6
Continuous
 62
     7
370
     0
100
AcDbDimension
  2
*D7
 10
180.4638307268
 20
77.5145216846
 30
0.0
 11
180.4638307268
 21
97.5145216846
 31
0.0
 70
   160
 71
     2
 42
-1.0
  3
SLDDIMSTYLE0
100
AcDbAlignedDimension
 13
190.4638307268
 23
117.5145216846
 33
0.0
 14
192.4638307268
 24
77.5145216846
 34
0.0
 50
90.0
100
AcDbRotatedDimension
  0
DIMENSION
  5
D1
330
1F
100
AcDbEntity
  8
0
  6
Continuous
 62
     7
370
     0
100
AcDbDimension
  2
*D8
 10
245.7713534303
 20
92.8220443881
 30
0.0
 11
225.7713534303
 21
112.8220443881
 31
0.0
 70
   160
 71
     2
 42
-1.0
  3
SLDDIMSTYLE1
100
AcDbAlignedDimension
 13
190.4638307268
 23
117.5145216846
 33
0.0
 14
230.4638307268
 24
77.5145216846
 34
0.0
 50
-45.0
100
AcDbRotatedDimension
  0
DIMENSION
  5
E6
330
1F
100
AcDbEntity
  8
0
  6
Continuous
 62
     7
370
     0
100
AcDbDimension
  2
*D9
 10
190.4638307268
 20
67.5145216846
 30
0.0
 11
210.4638307268
 21
67.5145216846
 31
0.0
 70
   160
 71
     2
 42
-1.0
  3
SLDDIMSTYLE0
100
AcDbAlignedDimension
 13
230.4638307268
 23
77.5145216846
 33
0.0
 14
190.4638307268
 24
79.5145216846
 34
0.0
100
AcDbRotatedDimension
  0
DIMENSION
  5
FA
330
1F
100
AcDbEntity
  8
0
  6
Continuous
 62
     7
370
     0
100
AcDbDimension
  2
*D10
 10
229.4638307268
 20
78.5145216846
 30
0.0
 11
154.4595248035
 21
108.9965359968
 31
0.0
 70
   162
 71
     1
 42
-1.0
  3
SLDDIMSTYLE2
100
AcDb2LineAngularDimension
 13
228.4638307268
 23
77.5145216846
 33
0.0
 14
192.4638307268
 24
77.5145216846
 34
0.0
 15
191.8780442891
 25
116.1003081222
 35
0.0
 16
162.7068472792
 26
124.1703138022
 36
0.0
  0
MTEXT
  5
10C
330
1F
100
AcDbEntity
  8
0
  6
Continuous
 62
     7
370
     0
100
AcDbMText
 10
223.0429853533
 20
104.0076646186
 30
0.0
 40
2.1166666667
 41
0.0
 71
     1
 72
     1
  1
S1
  7
SLDTEXTSTYLE0
 73
     1
 44
1.0
  0
LEADER
  5
10E
330
1F
100
AcDbEntity
  8
0
  6
Continuous
 62
     7
370
     0
100
AcDbLeader
  3
SLDDIMSTYLE3
 76
     3
 10
210.8673227915
 20
97.1110296198
 30
0.0
 10
216.1908302852
 20
103.0026922171
 30
0.0
 10
222.5408302852
 20
103.0026922171
 30
0.0
  0
LINE
  5
10F
330
1F
100
AcDbEntity
  8
0
  6
Continuous
 62
     7
370
     0
100
AcDbLine
 10
40.1624957151
 20
77.5145219081
 30
0.0
 11
38.1624953872
 21
79.5145213046
 31
0.0
  0
LINE
  5
110
330
1F
100
AcDbEntity
  8
0
  6
Continuous
 62
     7
370
     0
100
AcDbLine
 10
40.1624957151
 20
79.5145213046
 30
0.0
 11
38.1624953872
 21
79.5145213046
 31
0.0
  0
LINE
  5
111
330
1F
100
AcDbEntity
  8
0
  6
Continuous
 62
     7
370
     0
100
AcDbLine
 10
40.1624957151
 20
77.5145219081
 30
0.0
 11
40.1624957151
 21
79.5145213046
 31
0.0
  0
LINE
  5
112
330
1F
100
AcDbEntity
  8
0
  6
Continuous
 62
     7
370
     0
100
AcDbLine
 10
38.1624953872
 20
79.5145213046
 30
0.0
 11
38.1624953872
 21
112.6860940271
 31
0.0
  0
LINE
  5
113
330
1F
100
AcDbEntity
  8
0
  6
Continuous
 62
     7
370
     0
100
AcDbLine
 10
40.1624957151
 20
116.1003076845
 30
0.0
 11
40.1624957151
 21
79.5145213046
 31
0.0
  0
LINE
  5
114
330
1F
100
AcDbEntity
  8
0
  6
Continuous
 62
     7
370
     0
100
AcDbLine
 10
38.1624953872
 20
112.6860940271
 30
0.0
 11
40.1624957151
 21
116.1003076845
 31
0.0
  0
LINE
  5
115
330
1F
100
AcDbEntity
  8
0
  6
Continuous
 62
     7
370
     0
100
AcDbLine
 10
76.1624941653
 20
77.5145219081
 30
0.0
 11
40.1624957151
 21
77.5145219081
 31
0.0
  0
LINE
  5
116
330
1F
100
AcDbEntity
  8
0
  6
Continuous
 62
     7
370
     0
100
AcDbLine
 10
40.1624957151
 20
79.5145213046
 30
0.0
 11
76.1624941653
 21
79.5145213046
 31
0.0
  0
LINE
  5
117
330
1F
100
AcDbEntity
  8
0
  6
Continuous
 62
     7
370
     0
100
AcDbLine
 10
76.1624941653
 20
79.5145213046
 30
0.0
 11
76.1624941653
 21
77.5145219081
 31
0.0
  0
LINE
  5
118
330
1F
100
AcDbEntity
  8
0
  6
Continuous
 62
     7
370
     0
100
AcDbLine
 10
76.1624941653
 20
79.5145213046
 30
0.0
 11
76.1624941653
 21
116.1003076845
 31
0.0
  0
LINE
  5
119
330
1F
100
AcDbEntity
  8
0
  6
Continuous
 62
     7
370
     0
100
AcDbLine
 10
76.1624941653
 20
116.1003076845
 30
0.0
 11
40.1624957151
 21
116.1003076845
 31
0.0
  0
LINE
  5
11A
330
1F
100
AcDbEntity
  8
0
  6
Continuous
 62
     7
370
     0
100
AcDbLine
 10
78.1624944932
 20
79.5145213046
 30
0.0
 11
76.1624941653
 21
77.5145219081
 31
0.0
  0
LINE
  5
11B
330
1F
100
AcDbEntity
  8
0
  6
Continuous
 62
     7
370
     0
100
AcDbLine
 10
78.1624944932
 20
79.5145213046
 30
0.0
 11
76.1624941653
 21
79.5145213046
 31
0.0
  0
LINE
  5
11C
330
1F
100
AcDbEntity
  8
0
  6
Continuous
 62
     7
370
     0
100
AcDbLine
 10
78.1624944932
 20
112.6860940271
 30
0.0
 11
78.1624944932
 21
79.5145213046
 31
0.0
  0
LINE
  5
11D
330
1F
100
AcDbEntity
  8
0
  6
Continuous
 62
     7
370
     0
100
AcDbLine
 10
76.1624941653
 20
116.1003076845
 30
0.0
 11
78.1624944932
 21
112.6860940271
 31
0.0
  0
DIMENSION
  5
11E
330
1F
100
AcDbEntity
  8
0
  6
Continuous
 62
     7
370
     0
100
AcDbDimension
  2
*D11
 10
78.1624949402
 20
67.5145216846
 30
0.0
 11
58.1624949402
 21
67.5145216846
 31
0.0
 70
   160
 71
     2
 42
-1.0
  3
SLDDIMSTYLE0
100
AcDbAlignedDimension
 13
38.1624949402
 23
79.5145216846
 33
0.0
 14
78.1624949402
 24
79.5145216846
 34
0.0
100
AcDbRotatedDimension
  0
LINE
  5
132
330
1F
100
AcDbEntity
  8
0
  6
Continuous
 62
     7
370
     0
100
AcDbLine
 10
255.0151066964
 20
197.3600773322
 30
0.0
 11
258.3372522547
 21
191.605952452
 31
0.0
  0
LINE
  5
133
330
1F
100
AcDbEntity
  8
0
  6
Continuous
 62
     7
370
     0
100
AcDbLine
 10
258.3372522547
 20
191.605952452
 30
0.0
 11
257.8220872117
 21
191.8013164745
 31
0.0
  0
LINE
  5
134
330
1F
100
AcDbEntity
  8
0
  6
Continuous
 62
     7
370
     0
100
AcDbLine
 10
257.8220872117
 20
191.8013164745
 30
0.0
 11
254.8901066964
 21
196.879655679
 31
0.0
  0
LINE
  5
135
330
1F
100
AcDbEntity
  8
0
  6
Continuous
 62
     7
370
     0
100
AcDbLine
 10
255.0151066964
 20
197.3600773322
 30
0.0
 11
254.8901066964
 21
196.879655679
 31
0.0
  0
LINE
  5
136
330
1F
100
AcDbEntity
  8
0
  6
Continuous
 62
     7
370
     0
100
AcDbLine
 10
258.1970872117
 20
199.1969955838
 30
0.0
 11
255.0151066964
 21
197.3600773322
 31
0.0
  0
LINE
  5
137
330
1F
100
AcDbEntity
  8
0
  6
Continuous
 62
     7
370
     0
100
AcDbLine
 10
261.51923277
 20
193.4428707036
 30
0.0
 11
258.1970872117
 21
199.1969955838
 31
0.0
  0
LINE
  5
138
330
1F
100
AcDbEntity
  8
0
  6
Continuous
 62
     7
370
     0
100
AcDbLine
 10
258.3372522547
 20
191.605952452
 30
0.0
 11
261.51923277
 21
193.4428707036
 31
0.0
  0
LINE
  5
139
330
1F
100
AcDbEntity
  8
0
  6
Continuous
 62
     7
370
     0
100
AcDbLine
 10
254.8901066964
 20
193.4939127981
 30
0.0
 11
257.8220872117
 21
191.8013164745
 31
0.0
  0
LINE
  5
13A
330
1F
100
AcDbEntity
  8
0
  6
Continuous
 62
     7
370
     0
100
AcDbLine
 10
254.8901066964
 20
196.879655679
 30
0.0
 11
254.8901066964
 21
193.4939127981
 31
0.0
  0
LINE
  5
13B
330
1F
100
AcDbEntity
  8
0
  6
Continuous
 62
     7
370
     0
100
AcDbLine
 10
258.3372522547
 20
191.605952452
 30
0.0
 11
258.248863907
 21
191.5549103575
 31
0.0
  0
LINE
  5
13C
330
1F
100
AcDbEntity
  8
0
  6
Continuous
 62
     7
370
     0
100
AcDbLine
 10
257.8220872117
 20
191.8013164745
 30
0.0
 11
258.248863907
 21
191.5549103575
 31
0.0
  0
LINE
  5
13D
330
1F
100
AcDbEntity
  8
0
  6
Continuous
 62
     7
370
     0
100
AcDbLine
 10
255.0151066964
 20
197.3600773322
 30
0.0
 11
254.8901066964
 21
197.4322382962
 31
0.0
  0
LINE
  5
13E
330
1F
100
AcDbEntity
  8
0
  6
Continuous
 62
     7
370
     0
100
AcDbLine
 10
254.8901066964
 20
197.4322382962
 30
0.0
 11
254.8901066964
 21
196.879655679
 31
0.0
  0
LINE
  5
13F
330
1F
100
AcDbEntity
  8
0
  6
Continuous
 62
     7
370
     0
100
AcDbLine
 10
258.248863907
 20
191.5549103575
 30
0.0
 11
255.0668833917
 21
193.3918286091
 31
0.0
  0
LINE
  5
140
330
1F
100
AcDbEntity
  8
0
  6
Continuous
 62
     7
370
     0
100
AcDbLine
 10
254.8901066964
 20
193.4939127981
 30
0.0
 11
255.0668833917
 21
193.3918286091
 31
0.0
  0
LINE
  5
141
330
1F
100
AcDbEntity
  8
0
  6
Continuous
 62
     7
370
     0
100
AcDbLine
 10
258.4256406023
 20
198.9206759585
 30
0.0
 11
261.3576211177
 21
193.8423367541
 31
0.0
  0
LINE
  5
142
330
1F
100
AcDbEntity
  8
0
  6
Continuous
 62
     7
370
     0
100
AcDbLine
 10
261.3576211177
 20
193.8423367541
 30
0.0
 11
261.51923277
 21
193.4428707036
 31
0.0
  0
LINE
  5
143
330
1F
100
AcDbEntity
  8
0
  6
Continuous
 62
     7
370
     0
100
AcDbLine
 10
258.4256406023
 20
198.9206759585
 30
0.0
 11
258.1970872117
 21
199.1969955838
 31
0.0
  0
LINE
  5
144
330
1F
100
AcDbEntity
  8
0
  6
Continuous
 62
     7
370
     0
100
AcDbLine
 10
261.4308444224
 20
193.3918286091
 30
0.0
 11
261.51923277
 21
193.4428707036
 31
0.0
  0
LINE
  5
145
330
1F
100
AcDbEntity
  8
0
  6
Continuous
 62
     7
370
     0
100
AcDbLine
 10
261.4308444224
 20
193.3918286091
 30
0.0
 11
258.248863907
 21
191.5549103575
 31
0.0
  0
LINE
  5
146
330
1F
100
AcDbEntity
  8
0
  6
Continuous
 62
     7
370
     0
100
AcDbLine
 10
254.8901066964
 20
197.4322382962
 30
0.0
 11
258.0720872117
 21
199.2691565478
 31
0.0
  0
LINE
  5
147
330
1F
100
AcDbEntity
  8
0
  6
Continuous
 62
     7
370
     0
100
AcDbLine
 10
258.0720872117
 20
199.2691565478
 30
0.0
 11
258.1970872117
 21
199.1969955838
 31
0.0
  0
OLE2FRAME
  5
148
330
1F
100
AcDbEntity
  8
0
100
AcDbOle2Frame
 70
     2
  3
Paintbrush Picture
 10
229.0524258301
 20
33.6996297921
 30
0.0
 11
265.1686469208
 21
28.555479607
 31
0.0
 71
     2
 72
     0
 73
     1
 90
     7296
310
80557333EF78ADA16C40002412788DD94040000000000000000041161DC7B292
310
7040002412788DD94040000000000000000041161DC7B2927040F6DD59E9338E
310
3C4000000000000000007333EF78ADA16C40F6DD59E9338E3C40000000000000
310
00000000000001000000000100000100000001000000000001000000001C0000
310
D0CF11E0A1B11AE1000000000000000000000000000000003E000300FEFF0900
310
0600000000000000000000000100000001000000000000000010000002000000
310
01000000FEFFFFFF0000000000000000FFFFFFFFFFFFFFFFFFFFFFFFFFFFFFFF
310
FFFFFFFFFFFFFFFFFFFFFFFFFFFFFFFFFFFFFFFFFFFFFFFFFFFFFFFFFFFFFFFF
310
FFFFFFFFFFFFFFFFFFFFFFFFFFFFFFFFFFFFFFFFFFFFFFFFFFFFFFFFFFFFFFFF
310
FFFFFFFFFFFFFFFFFFFFFFFFFFFFFFFFFFFFFFFFFFFFFFFFFFFFFFFFFFFFFFFF
310
FFFFFFFFFFFFFFFFFFFFFFFFFFFFFFFFFFFFFFFFFFFFFFFFFFFFFFFFFFFFFFFF
310
FFFFFFFFFFFFFFFFFFFFFFFFFFFFFFFFFFFFFFFFFFFFFFFFFFFFFFFFFFFFFFFF
310
FFFFFFFFFFFFFFFFFFFFFFFFFFFFFFFFFFFFFFFFFFFFFFFFFFFFFFFFFFFFFFFF
310
FFFFFFFFFFFFFFFFFFFFFFFFFFFFFFFFFFFFFFFFFFFFFFFFFFFFFFFFFFFFFFFF
310
FFFFFFFFFFFFFFFFFFFFFFFFFFFFFFFFFFFFFFFFFFFFFFFFFFFFFFFFFFFFFFFF
310
FFFFFFFFFFFFFFFFFFFFFFFFFFFFFFFFFFFFFFFFFFFFFFFFFFFFFFFFFFFFFFFF
310
FFFFFFFFFFFFFFFFFFFFFFFFFFFFFFFFFFFFFFFFFFFFFFFFFFFFFFFFFFFFFFFF
310
FFFFFFFFFFFFFFFFFFFFFFFFFFFFFFFFFFFFFFFFFFFFFFFFFFFFFFFFFFFFFFFF
310
FFFFFFFFFFFFFFFFFFFFFFFFFFFFFFFFFFFFFFFFFFFFFFFFFFFFFFFFFFFFFFFF
310
FFFFFFFFFFFFFFFFFFFFFFFFFFFFFFFFFFFFFFFFFFFFFFFFFFFFFFFFFFFFFFFF
310
FDFFFFFFFEFFFFFFFEFFFFFFFEFFFFFF05000000060000000700000008000000
310
090000000A0000000B0000000C000000FEFFFFFFFFFFFFFFFFFFFFFFFFFFFFFF
310
FFFFFFFFFFFFFFFFFFFFFFFFFFFFFFFFFFFFFFFFFFFFFFFFFFFFFFFFFFFFFFFF
310
FFFFFFFFFFFFFFFFFFFFFFFFFFFFFFFFFFFFFFFFFFFFFFFFFFFFFFFFFFFFFFFF
310
FFFFFFFFFFFFFFFFFFFFFFFFFFFFFFFFFFFFFFFFFFFFFFFFFFFFFFFFFFFFFFFF
310
FFFFFFFFFFFFFFFFFFFFFFFFFFFFFFFFFFFFFFFFFFFFFFFFFFFFFFFFFFFFFFFF
310
FFFFFFFFFFFFFFFFFFFFFFFFFFFFFFFFFFFFFFFFFFFFFFFFFFFFFFFFFFFFFFFF
310
FFFFFFFFFFFFFFFFFFFFFFFFFFFFFFFFFFFFFFFFFFFFFFFFFFFFFFFFFFFFFFFF
310
FFFFFFFFFFFFFFFFFFFFFFFFFFFFFFFFFFFFFFFFFFFFFFFFFFFFFFFFFFFFFFFF
310
FFFFFFFFFFFFFFFFFFFFFFFFFFFFFFFFFFFFFFFFFFFFFFFFFFFFFFFFFFFFFFFF
310
FFFFFFFFFFFFFFFFFFFFFFFFFFFFFFFFFFFFFFFFFFFFFFFFFFFFFFFFFFFFFFFF
310
FFFFFFFFFFFFFFFFFFFFFFFFFFFFFFFFFFFFFFFFFFFFFFFFFFFFFFFFFFFFFFFF
310
FFFFFFFFFFFFFFFFFFFFFFFFFFFFFFFFFFFFFFFFFFFFFFFFFFFFFFFFFFFFFFFF
310
FFFFFFFFFFFFFFFFFFFFFFFFFFFFFFFFFFFFFFFFFFFFFFFFFFFFFFFFFFFFFFFF
310
FFFFFFFFFFFFFFFFFFFFFFFFFFFFFFFFFFFFFFFFFFFFFFFFFFFFFFFFFFFFFFFF
310
FFFFFFFFFFFFFFFFFFFFFFFFFFFFFFFFFFFFFFFFFFFFFFFFFFFFFFFFFFFFFFFF
310
52006F006F007400200045006E00740072007900000000000000000000000000
310
0000000000000000000000000000000000000000000000000000000000000000
310
16000500FFFFFFFFFFFFFFFF020000000A00030000000000C000000000000046
310
00000000000000000000000080150930E3ABCD0103000000C000000000000000
310
01004F006C006500000000000000000000000000000000000000000000000000
310
0000000000000000000000000000000000000000000000000000000000000000
310
0A000200FFFFFFFFFFFFFFFFFFFFFFFF00000000000000000000000000000000
310
0000000000000000000000000000000000000000000000001400000000000000
310
010043006F006D0070004F0062006A0000000000000000000000000000000000
310
0000000000000000000000000000000000000000000000000000000000000000
310
120002010100000003000000FFFFFFFF00000000000000000000000000000000
310
0000000000000000000000000000000000000000010000004D00000000000000
310
01004F006C006500310030004E00610074006900760065000000000000000000
310
0000000000000000000000000000000000000000000000000000000000000000
310
1A000200FFFFFFFFFFFFFFFFFFFFFFFF00000000000000000000000000000000
310
000000000000000000000000000000000000000004000000E411000000000000
310
FEFFFFFF02000000FEFFFFFFFFFFFFFFFFFFFFFFFFFFFFFFFFFFFFFFFFFFFFFF
310
FFFFFFFFFFFFFFFFFFFFFFFFFFFFFFFFFFFFFFFFFFFFFFFFFFFFFFFFFFFFFFFF
310
FFFFFFFFFFFFFFFFFFFFFFFFFFFFFFFFFFFFFFFFFFFFFFFFFFFFFFFFFFFFFFFF
310
FFFFFFFFFFFFFFFFFFFFFFFFFFFFFFFFFFFFFFFFFFFFFFFFFFFFFFFFFFFFFFFF
310
FFFFFFFFFFFFFFFFFFFFFFFFFFFFFFFFFFFFFFFFFFFFFFFFFFFFFFFFFFFFFFFF
310
FFFFFFFFFFFFFFFFFFFFFFFFFFFFFFFFFFFFFFFFFFFFFFFFFFFFFFFFFFFFFFFF
310
FFFFFFFFFFFFFFFFFFFFFFFFFFFFFFFFFFFFFFFFFFFFFFFFFFFFFFFFFFFFFFFF
310
FFFFFFFFFFFFFFFFFFFFFFFFFFFFFFFFFFFFFFFFFFFFFFFFFFFFFFFFFFFFFFFF
310
FFFFFFFFFFFFFFFFFFFFFFFFFFFFFFFFFFFFFFFFFFFFFFFFFFFFFFFFFFFFFFFF
310
FFFFFFFFFFFFFFFFFFFFFFFFFFFFFFFFFFFFFFFFFFFFFFFFFFFFFFFFFFFFFFFF
310
FFFFFFFFFFFFFFFFFFFFFFFFFFFFFFFFFFFFFFFFFFFFFFFFFFFFFFFFFFFFFFFF
310
FFFFFFFFFFFFFFFFFFFFFFFFFFFFFFFFFFFFFFFFFFFFFFFFFFFFFFFFFFFFFFFF
310
FFFFFFFFFFFFFFFFFFFFFFFFFFFFFFFFFFFFFFFFFFFFFFFFFFFFFFFFFFFFFFFF
310
FFFFFFFFFFFFFFFFFFFFFFFFFFFFFFFFFFFFFFFFFFFFFFFFFFFFFFFFFFFFFFFF
310
FFFFFFFFFFFFFFFFFFFFFFFFFFFFFFFFFFFFFFFFFFFFFFFFFFFFFFFFFFFFFFFF
310
FFFFFFFFFFFFFFFFFFFFFFFFFFFFFFFFFFFFFFFFFFFFFFFFFFFFFFFFFFFFFFFF
310
0100000200000000000000000000000000000000000000000000000000000000
310
0000000000000000000000000000000000000000000000000000000000000000
310
0100FEFF030A0000FFFFFFFF0A00030000000000C00000000000004607000000
310
5042727573680007000000504272757368000700000050427275736800F439B2
310
7100000000000000000000000000000000000000000000000000000000000000
310
0000000000000000000000000000000000000000000000000000000000000000
310
0000000000000000000000000000000000000000000000000000000000000000
310
0000000000000000000000000000000000000000000000000000000000000000
310
0000000000000000000000000000000000000000000000000000000000000000
310
0000000000000000000000000000000000000000000000000000000000000000
310
0000000000000000000000000000000000000000000000000000000000000000
310
0000000000000000000000000000000000000000000000000000000000000000
310
0000000000000000000000000000000000000000000000000000000000000000
310
0000000000000000000000000000000000000000000000000000000000000000
310
0000000000000000000000000000000000000000000000000000000000000000
310
0000000000000000000000000000000000000000000000000000000000000000
310
E0110000424DDE11000000000000360400002800000096000000170000000100
310
08000000000000000000E7240000E72400000001000000010000000000FF0101
310
01FF020202FF030303FF040404FF050505FF060606FF070707FF080808FF0909
310
09FF0A0A0AFF0B0B0BFF0C0C0CFF0D0D0DFF0E0E0EFF0F0F0FFF101010FF1111
310
11FF121212FF131313FF141414FF151515FF161616FF171717FF181818FF1919
310
19FF1A1A1AFF1B1B1BFF1C1C1CFF1D1D1DFF1E1E1EFF1F1F1FFF202020FF2121
310
21FF222222FF232323FF242424FF252525FF262626FF272727FF282828FF2929
310
29FF2A2A2AFF2B2B2BFF2C2C2CFF2D2D2DFF2E2E2EFF2F2F2FFF303030FF3131
310
31FF323232FF333333FF343434FF353535FF363636FF373737FF383838FF3939
310
39FF3A3A3AFF3B3B3BFF3C3C3CFF3D3D3DFF3E3E3EFF3F3F3FFF404040FF4141
310
41FF424242FF434343FF444444FF454545FF464646FF474747FF484848FF4949
310
49FF4A4A4AFF4B4B4BFF4C4C4CFF4D4D4DFF4E4E4EFF4F4F4FFF505050FF5151
310
51FF525252FF535353FF545454FF555555FF565656FF575757FF585858FF5959
310
59FF5A5A5AFF5B5B5BFF5C5C5CFF5D5D5DFF5E5E5EFF5F5F5FFF606060FF6161
310
61FF626262FF636363FF646464FF656565FF666666FF676767FF686868FF6969
310
69FF6A6A6AFF6B6B6BFF6C6C6CFF6D6D6DFF6E6E6EFF6F6F6FFF707070FF7171
310
71FF727272FF737373FF747474FF757575FF767676FF777777FF787878FF7979
310
79FF7A7A7AFF7B7B7BFF7C7C7CFF7D7D7DFF7E7E7EFF7F7F7FFF808080FF8181
310
81FF828282FF838383FF848484FF858585FF868686FF878787FF888888FF8989
310
89FF8A8A8AFF8B8B8BFF8C8C8CFF8D8D8DFF8E8E8EFF8F8F8FFF909090FF9191
310
91FF929292FF939393FF949494FF959595FF969696FF979797FF989898FF9999
310
99FF9A9A9AFF9B9B9BFF9C9C9CFF9D9D9DFF9E9E9EFF9F9F9FFFA0A0A0FFA1A1
310
A1FFA2A2A2FFA3A3A3FFA4A4A4FFA5A5A5FFA6A6A6FFA7A7A7FFA8A8A8FFA9A9
310
A9FFAAAAAAFFABABABFFACACACFFADADADFFAEAEAEFFAFAFAFFFB0B0B0FFB1B1
310
B1FFB2B2B2FFB3B3B3FFB4B4B4FFB5B5B5FFB6B6B6FFB7B7B7FFB8B8B8FFB9B9
310
B9FFBABABAFFBBBBBBFFBCBCBCFFBDBDBDFFBEBEBEFFBFBFBFFFC0C0C0FFC1C1
310
C1FFC2C2C2FFC3C3C3FFC4C4C4FFC5C5C5FFC6C6C6FFC7C7C7FFC8C8C8FFC9C9
310
C9FFCACACAFFCBCBCBFFCCCCCCFFCDCDCDFFCECECEFFCFCFCFFFD0D0D0FFD1D1
310
D1FFD2D2D2FFD3D3D3FFD4D4D4FFD5D5D5FFD6D6D6FFD7D7D7FFD8D8D8FFD9D9
310
D9FFDADADAFFDBDBDBFFDCDCDCFFDDDDDDFFDEDEDEFFDFDFDFFFE0E0E0FFE1E1
310
E1FFE2E2E2FFE3E3E3FFE4E4E4FFE5E5E5FFE6E6E6FFE7E7E7FFE8E8E8FFE9E9
310
E9FFEAEAEAFFEBEBEBFFECECECFFEDEDEDFFEEEEEEFFEFEFEFFFF0F0F0FFF1F1
310
F1FFF2F2F2FFF3F3F3FFF4F4F4FFF5F5F5FFF6F6F6FFF7F7F7FFF8F8F8FFF9F9
310
F9FFFAFAFAFFFBFBFBFFFCFCFCFFFDFDFDFFFEFEFEFFFFFFFFFFFFFFFFFFFFFF
310
C94E4E4E4F4E4EFFFFFFFFFFC94E4E4E4E4E72FFFFFFFFFFFFFF734E4D4E4E4E
310
C9FFFFFFFFFFAA683516171616265B9BE9FFFFFFFFFF4E4E4E4D4E4EFFFFFFFF
310
FFFFFFFF4E4E4F4E4D4E4E4E4F4E4E4F4D4E4E4E4E4E4D4E4F4E4D4E4E4EAAFF
310
FFFFFFFFFFEA4E4F4F4E4E4E4E4E4D4D4F4F4E4E4E4E4E5B7FAAFFFFFFFFFFFF
310
C9744E1716171616164D8DEAFFFFFFFF0000FFFFFFFFFFFFBA161617161716FF
310
FFFFFFFFB917171616174FFFFFFFFFFFFFFF4E1716161616B9FFFFFFB9341717
310
1716171617171616268CFFFFFFFF161617161617FFFFFFFFFFFFFFB917161717
310
1617167F807F7F7F7F7F7F807F7F807F7F807F7F7F414EFFFFFFFFFFFF8C167F
310
7F807F7F7F7E7F7F807F807F7F807F4E3417258EFFFFEA4E162674AABAEAEBBA
310
AA74341680FFFFFF0000FFFFFFFFFFFFB9171717171617FFFFFFFFFFBB161616
310
16164EFFFFFFFFFFFFFF4E1717171717B9FFFF9C171617171716161616171616
310
171766FFFFFF161717161617FFFFFFFFFFFFFF8E16171717161616FFFFFFFFFF
310
FFFFFFFFFFFFFFFFFFFFFFFFFFAA16D9FFFFFFFFFF3467FFFFFFFFEAFFFFFFFF
310
FFFFFFFFFFFFFFFFFFCA671667EB26278DFFFFFFFFFFFFFFFFFFFF8C2541EAFF
310
0000FFFFFFFFFFFFB9171717171716FFFFFFFFFFBA16171617174EFFFFFFFFFF
310
FFFF4E1717161616BAFF9B1617161616171716171617161616161667FFFF1616
310
16161716FFFFFFFFFFFFFF7F16161617174017FFFFFFFFFFFFFFFFFFFFFFFFFF
310
FFFFFFFFFFFF344E7F7F7F7E7417DAFFFFFFFF80FFFFFFFFFFFFFFFFFFFFFFFF
310
FFFFFF9B163425CAFFFFFFFFFFFFFFFFFFFFFFFFCA2667FF0000FFFFFFFFFFFF
310
BA171717171617FFFFFFFFFFB916171716164EFFFFFFFFFFFFFF4F1716161717
310
B9C91716171616161716161617171616161617168DFF161716161717FFFFFFFF
310
FFFFFF7F17171716164F16FFFFFFFFFFFFFFFFFFFFFFFFFFFFFFFFFFFFFF9B16
310
17161617174EFFFFFFFFFF34FFFFFFFFD9BABABABABADAFFFFFFFFFF7F16AAFF
310
FFFFFFFFFFFFFFFFFFFFFFFFFF9C16BA0000FFFFFFFFFFFFB9161717161717FF
310
FFFFFFFFB917161716174DFFFFFFFFFFFFFF4E1616161616BA4E161617171716
310
419BEAEAAA4E16161617161726E9171717161616FFFFFFFFFFFFFF4F16161717
310
164E16FFFFFFFFFFBAB9B9B9B9B9BABABACAFFFFFFFFFFFFFFFFFFFFFFFFFFFF
310
FFFFBA16FFFFFFFF7F1617161617174DEAFFFFFFEA41FFFFFFFFFFAA4D16174E
310
9BFFFFFFFFFF34730000FFFFFFFFFFFFB9161617171617FFFFFFFFFFBA161616
310
16164EFFFFFFFFFFFFFF4F16161717169B1617161716175BFFFFFFFFFFFF7417
310
16171616168D171717161617FFFFFFFFFFFFEA2616171717167416FFFFFFFFFF
310
16171616171717171717EAFFFFFFFFFFFFFFFFFFFFFFFFFFFFFF6716FFFFFFFF
310
7F4EFFFFFFFFBA2573FFFFFFFFBAFFFFFFFFAA167FB9BB9B269BFFFFFFFF664F
310
0000FFFFFFFFFFFFB9171616161616FFFFFFFFFFBA16161717164EFFFFFFFFFF
310
FFFF4E16161616174E161617171626EAFFFFFFFFFFFFFF4E16161616164E1716
310
16161617FFFFFFFFFFFF671616161716347F16FFFFFFFFFF16B9FFFFFFFFFFFF
310
D9168DFFFFFFFFFFFFFFFFFFFFFFFFFFFFEA1716FFFFFFFF7F4EFFFFFFFFFF7F
310
4EFFFFFFFFFFFFFFFFFF5B66FFFFFFEA347FFFFFFFFF7F4D0000FFFFFFFFFFFF
310
B9171616171617FFFFFFFFFFBA17161716174EFFFFFFFFFFFFFF4D1716161617
310
17161716161673FFFFFFFFFFFFFFFF9B1617161717161616171616174F4E4E4E
310
4E341616171616167E7F16FFFFFFFFFF16BAFFFFFFFFFFFFFF5B41FFFFFFFF34
310
1616171616BAFFFFFF9B1716FFFFFFFF7F4EFFFFFFFFFF4E4EFFFFFFFF734E4E
310
4E4E267EDA9B67164EEAFFFFFFFF744D0000FFFFFFFFFFFFBA171717161617FF
310
FFFFFFFFBA1616171616347F7F7F7F80807F331616161717161717161716B9FF
310
FFFFFFFFFFFFFFE9161616161616171716161716171616161616171616171734
310
EA7F16FFFFFFFFFF16BAFFFFFFFFFFFFFFAA17C9FFFFFF7326BABA5B25FFFFFF
310
FF401716FFFFFFFF7F264F4E4E4E4217AAFFFFFFEA16677F73261616164173CA
310
FFFFFFFFFFFF417F0000FFFFFFFFFFFFBA171616171617FFFFFFFFFFBA161616
310
17171616161616161616161717161616161616161617EAFFFFFFFFFFFFFFFFFF
310
261717161716161617161616161617161617161616174EEAFF8016FFFFFFFFFF
310
17BAFFFFFFFFFFFFFFFF3467FFFFFFC916C9FF3467FFFFFFDA166716FFFFFFFF
310
9C4D4E4E4E4E67AAFFFFFFFF6834FF7F262567AAEAFFFFFFFFFFFFFFFF9B17D9
310
0000FFFFFFFFFFFFB9161616161616FFFFFFFFFFBA1617161717171616161616
310
1716171716161716161617171716FFFFFFFFFFFFFFFFFFFF4E17161716171616
310
1617171616161716171717161616169BFF7F17FFFFFFFFFF17B9FFFFFFFFFFFF
310
FFFF7326FFFFFFFF3473DA16AAFFFFFF7317AA16FFFFFFFFFFFFFFFFFFFFFFFF
310
FFFFEA6725BA4E167FEAFFFFFFFFFFFFFFFFFFFF9C167FFF0000FFFFFFFFFFFF
310
B9161717171716FFFFFFFFFFBA16161716171616171717161617161716161616
310
171617171617EAFFFFFFFFFFFFFFFFFF26161717161616161616161617171616
310
1616161616171616AA8016FFFFFFFFFF16BAFFFFFFFFFFFFFFFFDA179BFFFFFF
310
74348D26FFFFFFFF2566B917FFFFFFFFD8BAB9BAB9BADAFFFFEA41169B7425C9
310
FFFFFFFFFFFFFFFFFFFFAB4F1680FFFF0000FFFFFFFFFFFFBA161717171617FF
310
FFFFFFFFBA17161717161617171617161616161617171616171716171617BBFF
310
FFFFFFFFFFFFFFE9171616161617161617161716FFFFFFFFFFD9671616161617
310
348017FFFFFFFFFF16BAFFFFFFFFFFFFFFFFFF4E5AFFFFFFC916265AFFFFFFAA
310
16AABA16FFFFFFFF7F1617161616179BFFFFEB4127168DFFFFFFFFFFFFFFD99B
310
6734175AC9FFFFFF0000FFFFFFFFFFFFB9161617171617FFFFFFFFFFBB161616
310
1616347F807F7F7F7F8033171716171617171616161672FFFFFFFFFFFFFFFF9C
310
171617171617161716161617FFFFFFFFFFFFFF4117161616174E17FFFFFFFFFF
310
16BAFFFFFFFFFFFFFFFFFF9B16DAFFFFFF34169BFFFFFF5A26FFB917FFFFFFFF
310
7F4EFFFFFFEA5B26FFFFFFEA2616EAFFFFFFFFDA743416331617414E4E4E4ECA
310
0000FFFFFFFFFFFFBA161716161616FFFFFFFFFFBA17171616164EFFFFFFFFFF
310
FFFF4E16161717174E161717171626EBFFFFFFFFFFFFFF4E16161617165B1616
310
16171617FFFFFFFFFFFFFF6716161616161617FFFFFFFFFF16BAFFFFFFFFFFFF
310
FFFFFFEA268CFFFFFF7316EAFFFFEB1774FFB916FFFFFFFF7F4EFFFFFFFF7316
310
FFFFFFFF6826FFFFFFFFEB264D9CEABA257F807F7F6616BA0000FFFFFFFFFFFF
310
BA161716161616FFFFFFFFFFBA16171616164DFFFFFFFFFFFFFF4E1617161617
310
9B1617171717165BEBFFFFFFFFFF671616161617179B171616161616FFFFFFFF
310
FFFFFF3417161617171617FFFFFFFFFF17BAFFFFFFFFFFFFFFFFFFFF6734FFFF
310
FFEBCAFFFFFF8D17C9FFBA17FFFFFFFF7F357F808066174FFFFFFFFF7F16FFFF
310
FFFFD91673B99B415BFFFFFFFFBA16DA00009B7F7F7F807F671617161616167F
310
80807F7E6617161616164EFFFFFFFFFFFFFF4E1616161617B94E171716161616
310
349BC9D9AA4E16171616161634FF161617161717B9B9BAB9BA9B411716171716
310
163416FFFFFFFFFF16B9FFFFFFFFFFFFFFFFFFFFC917CAFFFFFFFFFFFFFF3342
310
FFFFBA17FFFFFFFF9B4E4E4F4E4E66EAFFFFFFFF5B16C9FFFFFFFFAA4E164E73
310
EAFFFFFFFF8D26FF00004E161716161616171617171616171717171617161616
310
17174EFFFFFFFFFFFFFF4E1717171616B9D92616171716171716171717171716
310
16171716AAFF161717171617161617171616161617161716166717FFFFFFFFFF
310
17B9FFFFFFFFFFFFFFFFFFFFFF3467FFFFFFFFFFFFCA168CFFFFBB17FFFFFFFF
310
FFFFFFFFFFFFFFFFFFFFFFEA26265BFFFFFFFFFFFFFFFFFFFFFFFFFFEA3467FF
310
00004D16161616161617161717161617161616171617171616164EFFFFFFFFFF
310
FFFF4D1617161616BAFF9B1616161616161716161616171717161766FFFF1616
310
16171617161617161716171616171717667F16FFFFFFFFFF17BAFFFFFFFFFFFF
310
FFFFFFFFFF8C26EAFFFFFFFFFF6617EAFFFFBA17FFFFFFFFFFFFFFFFFFFFFFFF
310
FFFFEA5A25BA269BFFFFFFFFFFFFFFFFFFFFFFFF6616DAFF00004E1616171616
310
1616161616161716161617171616171616174EFFFFFFFFFFFFFF4D1717171716
310
B9FFFF9C161616161616161716161717171667FFFFFF17161717171716161617
310
1716161616161641E97E16FFFFFFFFFF16B9FFFFFFFFFFFFFFFFFFFFFFEA169B
310
FFFFFFFFEA265BFFFFFFB916FFFFFFFFFFFFFFFFFFFFFFFFFF9B3416AAFF9B17
310
67EAFFFFFFFFFFFFFFFFEA5B169BFFFF00004D17161716161616161717171616
310
161717161716171716174EFFFFFFFFFFFFFF4D1616161616BAFFFFFFBB411616
310
161716161616171634ABFFFFFFFF161716161617171716171617171617267FFF
310
FF7F164E4E4E4E4F17BAFFFFFFFFFFFFFFFFFFFFFFFF66344D4E4E4F4117AAFF
310
FFFFBA174E4E4E4D4E4D4D4E4E4E4E4116174EBBFFFFFFCA342666ABEAFFFFEA
310
AA6725269CFFFFFF0000724F4E4D4D4D4E4D4D4E4E4E4D4E4E4E4E4E4E4E4E4D
310
4E4E74FFFFFFFFFFFFFF734E4E4E4D4ECAFFFFFFFFFFAA663416171717265B9B
310
FFFFFFFFFFFF7F8080807F80807F7F7F7F7F807FBAFFFFFFFF9B4E4E4F4D4D4E
310
4DC9FFFFFFFFFFFFFFFFFFFFFFFFBA4E4E4E4E4D4E4EFFFFFFFFC94E4E4E4F4E
310
4E4E4D4E4E5A807F9CD9FFFFFFFFFFFFFF9B5B2617171716174E8DEAFFFFFFFF
310
0000000000000000000000000000000000000000000000000000000000000000
  1
OLE
  0
ENDSEC
  0
SECTION
  2
OBJECTS
  0
DICTIONARY
  5
C
330
0
100
AcDbDictionary
281
     1
  3
ACAD_GROUP
350
D
  3
ACAD_LAYOUT
350
1A
  3
ACAD_MLINESTYLE
350
17
  3
ACAD_PLOTSETTINGS
350
19
  3
ACAD_PLOTSTYLENAME
350
E
  0
DICTIONARY
  5
D
102
{ACAD_REACTORS
330
C
102
}
330
C
100
AcDbDictionary
281
     1
  0
DICTIONARY
  5
1A
102
{ACAD_REACTORS
330
C
102
}
330
C
100
AcDbDictionary
281
     1
  3
Layout1
350
1E
  3
Layout2
350
26
  3
Model
350
22
  0
DICTIONARY
  5
17
102
{ACAD_REACTORS
330
C
102
}
330
C
100
AcDbDictionary
281
     1
  3
Standard
350
18
  0
DICTIONARY
  5
19
102
{ACAD_REACTORS
330
C
102
}
330
C
100
AcDbDictionary
281
     1
  0
ACDBDICTIONARYWDFLT
  5
E
102
{ACAD_REACTORS
330
C
102
}
330
C
100
AcDbDictionary
281
     1
  3
Normal
350
F
100
AcDbDictionaryWithDefault
340
F
  0
LAYOUT
  5
1E
102
{ACAD_REACTORS
330
1A
102
}
330
1A
100
AcDbPlotSettings
  1

  2
none_device
  4

  6

 40
0.0
 41
0.0
 42
0.0
 43
0.0
 44
0.0
 45
0.0
 46
0.0
 47
0.0
 48
0.0
 49
0.0
140
0.0
141
0.0
142
1.0
143
1.0
 70
   688
 72
     0
 73
     0
 74
     5
  7

 75
    16
147
1.0
148
0.0
149
0.0
100
AcDbLayout
  1
Layout1
 70
     1
 71
     1
 10
0.0
 20
0.0
 11
420.0
 21
297.0
 12
0.0
 22
0.0
 32
0.0
 14
1.0000000000E+20
 24
1.0000000000E+20
 34
1.0000000000E+20
 15
-1.0000000000E+20
 25
-1.0000000000E+20
 35
-1.0000000000E+20
146
0.0
 13
0.0
 23
0.0
 33
0.0
 16
1.0
 26
0.0
 36
0.0
 17
0.0
 27
1.0
 37
0.0
 76
     0
330
1B
  0
LAYOUT
  5
26
102
{ACAD_REACTORS
330
1A
102
}
330
1A
100
AcDbPlotSettings
  1

  2
none_device
  4

  6

 40
0.0
 41
0.0
 42
0.0
 43
0.0
 44
0.0
 45
0.0
 46
0.0
 47
0.0
 48
0.0
 49
0.0
140
0.0
141
0.0
142
1.0
143
1.0
 70
   688
 72
     0
 73
     0
 74
     5
  7

 75
    16
147
1.0
148
0.0
149
0.0
100
AcDbLayout
  1
Layout2
 70
     1
 71
     2
 10
0.0
 20
0.0
 11
0.0
 21
0.0
 12
0.0
 22
0.0
 32
0.0
 14
0.0
 24
0.0
 34
0.0
 15
0.0
 25
0.0
 35
0.0
146
0.0
 13
0.0
 23
0.0
 33
0.0
 16
1.0
 26
0.0
 36
0.0
 17
0.0
 27
1.0
 37
0.0
 76
     0
330
23
  0
LAYOUT
  5
22
102
{ACAD_REACTORS
330
1A
102
}
330
1A
100
AcDbPlotSettings
  1

  2
none_device
  4

  6

 40
0.0
 41
0.0
 42
0.0
 43
0.0
 44
0.0
 45
0.0
 46
0.0
 47
0.0
 48
0.0
 49
0.0
140
0.0
141
0.0
142
1.0
143
1.0
 70
  1712
 72
     0
 73
     0
 74
     0
  7

 75
     0
147
1.0
148
0.0
149
0.0
100
AcDbLayout
  1
Model
 70
     1
 71
     0
 10
0.0
 20
0.0
 11
279.4
 21
215.9
 12
0.0
 22
0.0
 32
0.0
 14
0.0
 24
0.0
 34
0.0
 15
279.4
 25
215.9
 35
0.0
146
0.0
 13
0.0
 23
0.0
 33
0.0
 16
1.0
 26
0.0
 36
0.0
 17
0.0
 27
1.0
 37
0.0
 76
     0
330
1F
331
29
  0
MLINESTYLE
  5
18
102
{ACAD_REACTORS
330
17
102
}
330
17
100
AcDbMlineStyle
  2
Standard
 70
     0
  3

 62
   256
 51
90.0
 52
90.0
 71
     2
 49
0.5
 62
   256
  6
BYLAYER
 49
-0.5
 62
   256
  6
BYLAYER
  0
ACDBPLACEHOLDER
  5
F
102
{ACAD_REACTORS
330
E
102
}
330
E
  0
ENDSEC
  0
EOF
