  0
SECTION
  2
HEADER
  9
$ACADVER
  1
AC1009
  9
$INSBASE
 10
0.0
 20
0.0
 30
0.0
  9
$EXTMIN
 10
0.0
 20
0.0
 30
0.0
  9
$EXTMAX
 10
0.0
 20
0.0
 30
0.0
  0
ENDSEC
  0
SECTION
  2
TABLES
  0
TABLE
  2
VPORT
 70
0
  0
ENDTAB
  0
TABLE
  2
LTYPE
 70
1
  0
LTYPE
  2
CONTINUOUS
 70
0
  3
Solid line
 72
65
 73
0
 40
0.0
  0
ENDTAB
  0
TABLE
  2
LAYER
 70
1
  0
LAYER
  2
0
 70
64
 62
7
  6
continuous
  0
ENDTAB
  0
TABLE
  2
STYLE
 70
1
  0
STYLE
  2
STANDARD
 70
0
 40
0
 41
1.0
 50
0.0
 71
0
 42
1
 3
ARIAL.TTF
 4

  0
ENDTAB
  0
TABLE
  2
VIEW
 70
0
  0
ENDTAB
  0
ENDSEC
  0
SECTION
  2
BLOCKS
  0
BLOCK
  8
0
  2
SHAPE2DVIEW
 70
0
 10
0.0
 20
0.0
 30
0.0
  3
SHAPE2DVIEW
  0
LINE
  8
0
 62
0
 10
1.53370086974e-15
 20
-12.523618
 30
0.0
 11
-15.0
 21
-12.523618
 31
0.0
  0
LINE
  8
0
 62
0
 10
-1.52276526369e-15
 20
12.434322
 30
0.0
 11
-15.0
 21
12.434322
 31
0.0
  0
LINE
  8
0
 62
0
 10
-1.52276526369e-15
 20
12.434322
 30
0.0
 11
1.53370086974e-15
 21
-12.523618
 31
0.0
  0
LINE
  8
0
 62
0
 10
-15.0
 20
12.434322
 30
0.0
 11
-15.0
 21
-12.523618
 31
0.0
  0
CIRCLE
  8
0
 62
0
 10
-7.0
 20
8.0
 30
0.0
 40
1.0
  0
CIRCLE
  8
0
 62
0
 10
-7.0
 20
-8.0
 30
0.0
 40
1.055634
  0
POLYLINE
  8
0
 62
0
 70
0
 66
1
 10
0.0
 20
0.0
 30
0.0
  0
VERTEX
  8
0
 10
3.70385584772e-16
 20
6.973112
 30
0.0
  0
VERTEX
  8
0
 10
1.18870564315e-16
 20
9.026888
 30
0.0
  0
SEQEND
  8
0
  0
POLYLINE
  8
0
 62
0
 70
0
 66
1
 10
0.0
 20
0.0
 30
0.0
  0
VERTEX
  8
0
 10
2.31855142174e-15
 20
-9.015822
 30
0.0
  0
VERTEX
  8
0
 10
2.06974678958e-15
 20
-6.984178
 30
0.0
  0
SEQEND
  8
0
  0
POLYLINE
  8
0
 62
0
 70
0
 66
1
 10
0.0
 20
0.0
 30
0.0
  0
VERTEX
  8
0
 10
-7.18157406608
 20
8.98337491504
 30
0.0
  0
VERTEX
  8
0
 10
-7.0
 20
9.0
 30
0.0
  0
SEQEND
  8
0
  0
POLYLINE
  8
0
 62
0
 70
0
 66
1
 10
0.0
 20
0.0
 30
0.0
  0
VERTEX
  8
0
 10
-6.97769120177
 20
8.99975695373
 30
0.0
  0
VERTEX
  8
0
 10
-7.0
 20
9.0
 30
0.0
  0
SEQEND
  8
0
  0
POLYLINE
  8
0
 62
0
 70
0
 66
1
 10
0.0
 20
0.0
 30
0.0
  0
VERTEX
  8
0
 10
-6.71282617296
 20
-6.98417799655
 30
0.0
  0
VERTEX
  8
0
 10
-6.68556373363
 20
-6.99228328388
 30
0.0
  0
SEQEND
  8
0
  0
POLYLINE
  8
0
 62
0
 70
0
 66
1
 10
0.0
 20
0.0
 30
0.0
  0
VERTEX
  8
0
 10
-6.68556373363
 20
-6.99228328388
 30
0.0
  0
VERTEX
  8
0
 10
-6.40075565282
 20
-7.13093765603
 30
0.0
  0
SEQEND
  8
0
  0
POLYLINE
  8
0
 62
0
 70
0
 66
1
 10
0.0
 20
0.0
 30
0.0
  0
VERTEX
  8
0
 10
-6.40046696432
 20
-7.13113678598
 30
0.0
  0
VERTEX
  8
0
 10
-6.40041271339
 20
-7.13117422269
 30
0.0
  0
SEQEND
  8
0
  0
POLYLINE
  8
0
 62
0
 70
0
 66
1
 10
0.0
 20
0.0
 30
0.0
  0
VERTEX
  8
0
 10
-6.32379061527
 20
-7.189380483
 30
0.0
  0
VERTEX
  8
0
 10
-6.28510380576
 20
-7.22328476274
 30
0.0
  0
SEQEND
  8
0
  0
POLYLINE
  8
0
 62
0
 70
0
 66
1
 10
0.0
 20
0.0
 30
0.0
  0
VERTEX
  8
0
 10
-5.944366
 20
-8.0
 30
0.0
  0
VERTEX
  8
0
 10
-6.009485032
 20
-8.36502497217
 30
0.0
  0
SEQEND
  8
0
  0
POLYLINE
  8
0
 62
0
 70
0
 66
1
 10
0.0
 20
0.0
 30
0.0
  0
VERTEX
  8
0
 10
-6.0528339956
 20
-8.46608982163
 30
0.0
  0
VERTEX
  8
0
 10
-6.05284894738
 20
-8.46612020472
 30
0.0
  0
SEQEND
  8
0
  0
POLYLINE
  8
0
 62
0
 70
0
 66
1
 10
0.0
 20
0.0
 30
0.0
  0
VERTEX
  8
0
 10
-6.11309064365
 20
-8.57249885716
 30
0.0
  0
VERTEX
  8
0
 10
-6.71282617412
 20
-9.015822
 30
0.0
  0
SEQEND
  8
0
  0
POLYLINE
  8
0
 62
0
 70
0
 66
1
 10
0.0
 20
0.0
 30
0.0
  0
VERTEX
  8
0
 10
-8.055634
 20
-8.0
 30
0.0
  0
VERTEX
  8
0
 10
-7.99051504872
 20
-8.36502475314
 30
0.0
  0
SEQEND
  8
0
  0
POLYLINE
  8
0
 62
0
 70
0
 66
1
 10
0.0
 20
0.0
 30
0.0
  0
VERTEX
  8
0
 10
-7.9471660044
 20
-8.46608982163
 30
0.0
  0
VERTEX
  8
0
 10
-7.94715105262
 20
-8.46612020472
 30
0.0
  0
SEQEND
  8
0
  0
POLYLINE
  8
0
 62
0
 70
0
 66
1
 10
0.0
 20
0.0
 30
0.0
  0
VERTEX
  8
0
 10
-7.88690935635
 20
-8.57249885716
 30
0.0
  0
VERTEX
  8
0
 10
-7.28717382588
 20
-9.015822
 30
0.0
  0
SEQEND
  8
0
  0
POLYLINE
  8
0
 62
0
 70
0
 66
1
 10
0.0
 20
0.0
 30
0.0
  0
VERTEX
  8
0
 10
-7.28717382588
 20
-9.015822
 30
0.0
  0
VERTEX
  8
0
 10
-7.28717382704
 20
-6.98417799655
 30
0.0
  0
SEQEND
  8
0
  0
POLYLINE
  8
0
 62
0
 70
0
 66
1
 10
0.0
 20
0.0
 30
0.0
  0
VERTEX
  8
0
 10
-7.28717382704
 20
-6.98417799655
 30
0.0
  0
VERTEX
  8
0
 10
-7.59924422203
 20
-7.13093756974
 30
0.0
  0
SEQEND
  8
0
  0
POLYLINE
  8
0
 62
0
 70
0
 66
1
 10
0.0
 20
0.0
 30
0.0
  0
VERTEX
  8
0
 10
-7.59953303569
 20
-7.13113678598
 30
0.0
  0
VERTEX
  8
0
 10
-7.59958728662
 20
-7.13117422269
 30
0.0
  0
SEQEND
  8
0
  0
POLYLINE
  8
0
 62
0
 70
0
 66
1
 10
0.0
 20
0.0
 30
0.0
  0
VERTEX
  8
0
 10
-7.67620953171
 20
-7.18938060562
 30
0.0
  0
VERTEX
  8
0
 10
-7.71489619641
 20
-7.22328476474
 30
0.0
  0
SEQEND
  8
0
  0
POLYLINE
  8
0
 62
0
 70
0
 66
1
 10
0.0
 20
0.0
 30
0.0
  0
VERTEX
  8
0
 10
-7.0
 20
9.0
 30
0.0
  0
VERTEX
  8
0
 10
-6.306308985
 20
8.72027270779
 30
0.0
  0
SEQEND
  8
0
  0
POLYLINE
  8
0
 62
0
 70
0
 66
1
 10
0.0
 20
0.0
 30
0.0
  0
VERTEX
  8
0
 10
-6.26070940268
 20
8.67338656465
 30
0.0
  0
VERTEX
  8
0
 10
-6.18125647216
 20
8.57415943772
 30
0.0
  0
SEQEND
  8
0
  0
POLYLINE
  8
0
 62
0
 70
0
 66
1
 10
0.0
 20
0.0
 30
0.0
  0
VERTEX
  8
0
 10
-6.08669994291
 20
8.40728735554
 30
0.0
  0
VERTEX
  8
0
 10
-6.04967811037
 20
8.3112689135
 30
0.0
  0
SEQEND
  8
0
  0
POLYLINE
  8
0
 62
0
 70
0
 66
1
 10
0.0
 20
0.0
 30
0.0
  0
VERTEX
  8
0
 10
-6.01787276688
 20
8.18821827008
 30
0.0
  0
VERTEX
  8
0
 10
-6.0
 20
8.0
 30
0.0
  0
SEQEND
  8
0
  0
POLYLINE
  8
0
 62
0
 70
0
 66
1
 10
0.0
 20
0.0
 30
0.0
  0
VERTEX
  8
0
 10
-6.0
 20
8.0
 30
0.0
  0
VERTEX
  8
0
 10
-6.05575649328
 20
7.6707520482
 30
0.0
  0
SEQEND
  8
0
  0
POLYLINE
  8
0
 62
0
 70
0
 66
1
 10
0.0
 20
0.0
 30
0.0
  0
VERTEX
  8
0
 10
-6.21597288264
 20
7.37927340537
 30
0.0
  0
VERTEX
  8
0
 10
-6.28300587682
 20
7.30292077327
 30
0.0
  0
SEQEND
  8
0
  0
POLYLINE
  8
0
 62
0
 70
0
 66
1
 10
0.0
 20
0.0
 30
0.0
  0
VERTEX
  8
0
 10
-6.28334015837
 20
7.30257710565
 30
0.0
  0
VERTEX
  8
0
 10
-7.0
 20
7.0
 30
0.0
  0
SEQEND
  8
0
  0
POLYLINE
  8
0
 62
0
 70
0
 66
1
 10
0.0
 20
0.0
 30
0.0
  0
VERTEX
  8
0
 10
-8.0
 20
8.0
 30
0.0
  0
VERTEX
  8
0
 10
-7.94424350159
 20
7.67075203349
 30
0.0
  0
SEQEND
  8
0
  0
POLYLINE
  8
0
 62
0
 70
0
 66
1
 10
0.0
 20
0.0
 30
0.0
  0
VERTEX
  8
0
 10
-7.78402711736
 20
7.37927340538
 30
0.0
  0
VERTEX
  8
0
 10
-7.71699410322
 20
7.30292075274
 30
0.0
  0
SEQEND
  8
0
  0
POLYLINE
  8
0
 62
0
 70
0
 66
1
 10
0.0
 20
0.0
 30
0.0
  0
VERTEX
  8
0
 10
-7.71665984163
 20
7.30257710565
 30
0.0
  0
VERTEX
  8
0
 10
-7.0
 20
7.0
 30
0.0
  0
SEQEND
  8
0
  0
POLYLINE
  8
0
 62
0
 70
0
 66
1
 10
0.0
 20
0.0
 30
0.0
  0
VERTEX
  8
0
 10
-7.0
 20
9.0
 30
0.0
  0
VERTEX
  8
0
 10
-7.693691015
 20
8.72027270779
 30
0.0
  0
SEQEND
  8
0
  0
POLYLINE
  8
0
 62
0
 70
0
 66
1
 10
0.0
 20
0.0
 30
0.0
  0
VERTEX
  8
0
 10
-7.73929057563
 20
8.67338658846
 30
0.0
  0
VERTEX
  8
0
 10
-7.81874352784
 20
8.57415943772
 30
0.0
  0
SEQEND
  8
0
  0
POLYLINE
  8
0
 62
0
 70
0
 66
1
 10
0.0
 20
0.0
 30
0.0
  0
VERTEX
  8
0
 10
-7.91330005709
 20
8.40728735554
 30
0.0
  0
VERTEX
  8
0
 10
-7.95032188963
 20
8.3112689135
 30
0.0
  0
SEQEND
  8
0
  0
POLYLINE
  8
0
 62
0
 70
0
 66
1
 10
0.0
 20
0.0
 30
0.0
  0
VERTEX
  8
0
 10
-7.98212723986
 20
8.1882182349
 30
0.0
  0
VERTEX
  8
0
 10
-8.0
 20
8.0
 30
0.0
  0
SEQEND
  8
0
  0
ENDBLK
  0
ENDSEC
  0
SECTION
  2
ENTITIES
  0
INSERT
  2
SHAPE2DVIEW
  8
0
 62
0
 10
0.0
 20
0.0
 30
0.0
  0
ENDSEC
  0
EOF
