  0
SECTION
  2
HEADER
  9
$ACADVER
  1
AC1009
  9
$INSBASE
 10
0.0
 20
0.0
 30
0.0
  9
$EXTMIN
 10
0.0
 20
0.0
 30
0.0
  9
$EXTMAX
 10
0.0
 20
0.0
 30
0.0
  0
ENDSEC
  0
SECTION
  2
TABLES
  0
TABLE
  2
VPORT
 70
0
  0
ENDTAB
  0
TABLE
  2
LTYPE
 70
1
  0
LTYPE
  2
CONTINUOUS
 70
0
  3
Solid line
 72
65
 73
0
 40
0.0
  0
ENDTAB
  0
TABLE
  2
LAYER
 70
1
  0
LAYER
  2
0
 70
64
 62
7
  6
continuous
  0
ENDTAB
  0
TABLE
  2
STYLE
 70
1
  0
STYLE
  2
STANDARD
 70
0
 40
0
 41
1.0
 50
0.0
 71
0
 42
1
 3
ARIAL.TTF
 4

  0
ENDTAB
  0
TABLE
  2
VIEW
 70
0
  0
ENDTAB
  0
ENDSEC
  0
SECTION
  2
BLOCKS
  0
BLOCK
  8
0
  2
CUT_SOLID
 70
0
 10
0.0
 20
0.0
 30
0.0
  3
CUT_SOLID
  0
POLYLINE
  8
0
 62
0
 70
0
 66
1
 10
0.0
 20
0.0
 30
0.0
  0
VERTEX
  8
0
 10
-7.478454
 20
-10.05
 30
0.0
  0
VERTEX
  8
0
 10
-7.478454
 20
-10.0
 30
0.0
  0
VERTEX
  8
0
 10
-7.478454
 20
-9.95
 30
0.0
  0
VERTEX
  8
0
 10
-7.478454
 20
-9.9
 30
0.0
  0
VERTEX
  8
0
 10
-7.478454
 20
-9.85
 30
0.0
  0
VERTEX
  8
0
 10
-7.478454
 20
-9.8
 30
0.0
  0
VERTEX
  8
0
 10
-7.478454
 20
-9.75
 30
0.0
  0
VERTEX
  8
0
 10
-7.478454
 20
-9.7
 30
0.0
  0
VERTEX
  8
0
 10
-7.478454
 20
-9.65
 30
0.0
  0
VERTEX
  8
0
 10
-7.478454
 20
-9.6
 30
0.0
  0
VERTEX
  8
0
 10
-7.478454
 20
-9.55
 30
0.0
  0
VERTEX
  8
0
 10
-7.478454
 20
-9.5
 30
0.0
  0
VERTEX
  8
0
 10
-7.478454
 20
-9.45
 30
0.0
  0
VERTEX
  8
0
 10
-7.478454
 20
-9.4
 30
0.0
  0
VERTEX
  8
0
 10
-7.478454
 20
-9.35
 30
0.0
  0
VERTEX
  8
0
 10
-7.478454
 20
-9.3
 30
0.0
  0
VERTEX
  8
0
 10
-7.478454
 20
-9.25
 30
0.0
  0
VERTEX
  8
0
 10
-7.478454
 20
-9.2
 30
0.0
  0
VERTEX
  8
0
 10
-7.478454
 20
-9.15
 30
0.0
  0
VERTEX
  8
0
 10
-7.478454
 20
-9.1
 30
0.0
  0
VERTEX
  8
0
 10
-7.478454
 20
-9.05
 30
0.0
  0
VERTEX
  8
0
 10
-7.478454
 20
-9.0
 30
0.0
  0
VERTEX
  8
0
 10
-7.478454
 20
-8.95
 30
0.0
  0
VERTEX
  8
0
 10
-7.478454
 20
-8.9
 30
0.0
  0
VERTEX
  8
0
 10
-7.478454
 20
-8.85
 30
0.0
  0
VERTEX
  8
0
 10
-7.478454
 20
-8.8
 30
0.0
  0
VERTEX
  8
0
 10
-7.478454
 20
-8.75
 30
0.0
  0
VERTEX
  8
0
 10
-7.478454
 20
-8.7
 30
0.0
  0
VERTEX
  8
0
 10
-7.478454
 20
-8.65
 30
0.0
  0
VERTEX
  8
0
 10
-7.478454
 20
-8.6
 30
0.0
  0
VERTEX
  8
0
 10
-7.478454
 20
-8.55
 30
0.0
  0
VERTEX
  8
0
 10
-7.478454
 20
-8.5
 30
0.0
  0
VERTEX
  8
0
 10
-7.478454
 20
-8.45
 30
0.0
  0
VERTEX
  8
0
 10
-7.478454
 20
-8.4
 30
0.0
  0
VERTEX
  8
0
 10
-7.478454
 20
-8.35
 30
0.0
  0
VERTEX
  8
0
 10
-7.478454
 20
-8.3
 30
0.0
  0
VERTEX
  8
0
 10
-7.478454
 20
-8.25
 30
0.0
  0
VERTEX
  8
0
 10
-7.478454
 20
-8.2
 30
0.0
  0
VERTEX
  8
0
 10
-7.478454
 20
-8.15
 30
0.0
  0
VERTEX
  8
0
 10
-7.478454
 20
-8.1
 30
0.0
  0
VERTEX
  8
0
 10
-7.478454
 20
-8.05
 30
0.0
  0
VERTEX
  8
0
 10
-7.478454
 20
-8.0
 30
0.0
  0
VERTEX
  8
0
 10
-7.478454
 20
-7.95
 30
0.0
  0
VERTEX
  8
0
 10
-7.478454
 20
-7.9
 30
0.0
  0
VERTEX
  8
0
 10
-7.478454
 20
-7.85
 30
0.0
  0
VERTEX
  8
0
 10
-7.478454
 20
-7.8
 30
0.0
  0
VERTEX
  8
0
 10
-7.478454
 20
-7.75
 30
0.0
  0
VERTEX
  8
0
 10
-7.478454
 20
-7.7
 30
0.0
  0
VERTEX
  8
0
 10
-7.478454
 20
-7.65
 30
0.0
  0
VERTEX
  8
0
 10
-7.478454
 20
-7.6
 30
0.0
  0
VERTEX
  8
0
 10
-7.478454
 20
-7.55
 30
0.0
  0
VERTEX
  8
0
 10
-7.478454
 20
-7.5
 30
0.0
  0
VERTEX
  8
0
 10
-7.478454
 20
-7.45
 30
0.0
  0
VERTEX
  8
0
 10
-7.478454
 20
-7.4
 30
0.0
  0
VERTEX
  8
0
 10
-7.478454
 20
-7.35
 30
0.0
  0
VERTEX
  8
0
 10
-7.478454
 20
-7.3
 30
0.0
  0
VERTEX
  8
0
 10
-7.478454
 20
-7.25
 30
0.0
  0
VERTEX
  8
0
 10
-7.478454
 20
-7.2
 30
0.0
  0
VERTEX
  8
0
 10
-7.478454
 20
-7.15
 30
0.0
  0
VERTEX
  8
0
 10
-7.478454
 20
-7.1
 30
0.0
  0
VERTEX
  8
0
 10
-7.478454
 20
-7.05
 30
0.0
  0
VERTEX
  8
0
 10
-7.478454
 20
-7.0
 30
0.0
  0
VERTEX
  8
0
 10
-7.478454
 20
-6.95
 30
0.0
  0
VERTEX
  8
0
 10
-7.478454
 20
-6.9
 30
0.0
  0
VERTEX
  8
0
 10
-7.478454
 20
-6.85
 30
0.0
  0
VERTEX
  8
0
 10
-7.478454
 20
-6.8
 30
0.0
  0
VERTEX
  8
0
 10
-7.478454
 20
-6.75
 30
0.0
  0
VERTEX
  8
0
 10
-7.478454
 20
-6.7
 30
0.0
  0
VERTEX
  8
0
 10
-7.478454
 20
-6.65
 30
0.0
  0
VERTEX
  8
0
 10
-7.478454
 20
-6.6
 30
0.0
  0
VERTEX
  8
0
 10
-7.478454
 20
-6.55
 30
0.0
  0
VERTEX
  8
0
 10
-7.478454
 20
-6.5
 30
0.0
  0
VERTEX
  8
0
 10
-7.478454
 20
-6.45
 30
0.0
  0
VERTEX
  8
0
 10
-7.478454
 20
-6.4
 30
0.0
  0
VERTEX
  8
0
 10
-7.478454
 20
-6.35
 30
0.0
  0
VERTEX
  8
0
 10
-7.478454
 20
-6.3
 30
0.0
  0
VERTEX
  8
0
 10
-7.478454
 20
-6.25
 30
0.0
  0
VERTEX
  8
0
 10
-7.478454
 20
-6.2
 30
0.0
  0
VERTEX
  8
0
 10
-7.478454
 20
-6.15
 30
0.0
  0
VERTEX
  8
0
 10
-7.478454
 20
-6.1
 30
0.0
  0
VERTEX
  8
0
 10
-7.478454
 20
-6.05
 30
0.0
  0
VERTEX
  8
0
 10
-7.478454
 20
-6.0
 30
0.0
  0
VERTEX
  8
0
 10
-7.478454
 20
-5.95
 30
0.0
  0
SEQEND
  8
0
  0
POLYLINE
  8
0
 62
0
 70
0
 66
1
 10
0.0
 20
0.0
 30
0.0
  0
VERTEX
  8
0
 10
-7.478454
 20
5.95
 30
0.0
  0
VERTEX
  8
0
 10
-7.478454
 20
6.0
 30
0.0
  0
VERTEX
  8
0
 10
-7.478454
 20
6.05
 30
0.0
  0
VERTEX
  8
0
 10
-7.478454
 20
6.1
 30
0.0
  0
VERTEX
  8
0
 10
-7.478454
 20
6.15
 30
0.0
  0
VERTEX
  8
0
 10
-7.478454
 20
6.2
 30
0.0
  0
VERTEX
  8
0
 10
-7.478454
 20
6.25
 30
0.0
  0
VERTEX
  8
0
 10
-7.478454
 20
6.3
 30
0.0
  0
VERTEX
  8
0
 10
-7.478454
 20
6.35
 30
0.0
  0
VERTEX
  8
0
 10
-7.478454
 20
6.4
 30
0.0
  0
VERTEX
  8
0
 10
-7.478454
 20
6.45
 30
0.0
  0
VERTEX
  8
0
 10
-7.478454
 20
6.5
 30
0.0
  0
VERTEX
  8
0
 10
-7.478454
 20
6.55
 30
0.0
  0
VERTEX
  8
0
 10
-7.478454
 20
6.6
 30
0.0
  0
VERTEX
  8
0
 10
-7.478454
 20
6.65
 30
0.0
  0
VERTEX
  8
0
 10
-7.478454
 20
6.7
 30
0.0
  0
VERTEX
  8
0
 10
-7.478454
 20
6.75
 30
0.0
  0
VERTEX
  8
0
 10
-7.478454
 20
6.8
 30
0.0
  0
VERTEX
  8
0
 10
-7.478454
 20
6.85
 30
0.0
  0
VERTEX
  8
0
 10
-7.478454
 20
6.9
 30
0.0
  0
VERTEX
  8
0
 10
-7.478454
 20
6.95
 30
0.0
  0
VERTEX
  8
0
 10
-7.478454
 20
7.0
 30
0.0
  0
VERTEX
  8
0
 10
-7.478454
 20
7.05
 30
0.0
  0
VERTEX
  8
0
 10
-7.478454
 20
7.1
 30
0.0
  0
VERTEX
  8
0
 10
-7.478454
 20
7.15
 30
0.0
  0
VERTEX
  8
0
 10
-7.478454
 20
7.2
 30
0.0
  0
VERTEX
  8
0
 10
-7.478454
 20
7.25
 30
0.0
  0
VERTEX
  8
0
 10
-7.478454
 20
7.3
 30
0.0
  0
VERTEX
  8
0
 10
-7.478454
 20
7.35
 30
0.0
  0
VERTEX
  8
0
 10
-7.478454
 20
7.4
 30
0.0
  0
VERTEX
  8
0
 10
-7.478454
 20
7.45
 30
0.0
  0
VERTEX
  8
0
 10
-7.478454
 20
7.5
 30
0.0
  0
VERTEX
  8
0
 10
-7.478454
 20
7.55
 30
0.0
  0
VERTEX
  8
0
 10
-7.478454
 20
7.6
 30
0.0
  0
VERTEX
  8
0
 10
-7.478454
 20
7.65
 30
0.0
  0
VERTEX
  8
0
 10
-7.478454
 20
7.7
 30
0.0
  0
VERTEX
  8
0
 10
-7.478454
 20
7.75
 30
0.0
  0
VERTEX
  8
0
 10
-7.478454
 20
7.8
 30
0.0
  0
VERTEX
  8
0
 10
-7.478454
 20
7.85
 30
0.0
  0
VERTEX
  8
0
 10
-7.478454
 20
7.9
 30
0.0
  0
VERTEX
  8
0
 10
-7.478454
 20
7.95
 30
0.0
  0
VERTEX
  8
0
 10
-7.478454
 20
8.0
 30
0.0
  0
VERTEX
  8
0
 10
-7.478454
 20
8.05
 30
0.0
  0
VERTEX
  8
0
 10
-7.478454
 20
8.1
 30
0.0
  0
VERTEX
  8
0
 10
-7.478454
 20
8.15
 30
0.0
  0
VERTEX
  8
0
 10
-7.478454
 20
8.2
 30
0.0
  0
VERTEX
  8
0
 10
-7.478454
 20
8.25
 30
0.0
  0
VERTEX
  8
0
 10
-7.478454
 20
8.3
 30
0.0
  0
VERTEX
  8
0
 10
-7.478454
 20
8.35
 30
0.0
  0
VERTEX
  8
0
 10
-7.478454
 20
8.4
 30
0.0
  0
VERTEX
  8
0
 10
-7.478454
 20
8.45
 30
0.0
  0
VERTEX
  8
0
 10
-7.478454
 20
8.5
 30
0.0
  0
VERTEX
  8
0
 10
-7.478454
 20
8.55
 30
0.0
  0
VERTEX
  8
0
 10
-7.478454
 20
8.6
 30
0.0
  0
VERTEX
  8
0
 10
-7.478454
 20
8.65
 30
0.0
  0
VERTEX
  8
0
 10
-7.478454
 20
8.7
 30
0.0
  0
VERTEX
  8
0
 10
-7.478454
 20
8.75
 30
0.0
  0
VERTEX
  8
0
 10
-7.478454
 20
8.8
 30
0.0
  0
VERTEX
  8
0
 10
-7.478454
 20
8.85
 30
0.0
  0
VERTEX
  8
0
 10
-7.478454
 20
8.9
 30
0.0
  0
VERTEX
  8
0
 10
-7.478454
 20
8.95
 30
0.0
  0
VERTEX
  8
0
 10
-7.478454
 20
9.0
 30
0.0
  0
VERTEX
  8
0
 10
-7.478454
 20
9.05
 30
0.0
  0
VERTEX
  8
0
 10
-7.478454
 20
9.1
 30
0.0
  0
VERTEX
  8
0
 10
-7.478454
 20
9.15
 30
0.0
  0
VERTEX
  8
0
 10
-7.478454
 20
9.2
 30
0.0
  0
VERTEX
  8
0
 10
-7.478454
 20
9.25
 30
0.0
  0
VERTEX
  8
0
 10
-7.478454
 20
9.3
 30
0.0
  0
VERTEX
  8
0
 10
-7.478454
 20
9.35
 30
0.0
  0
VERTEX
  8
0
 10
-7.478454
 20
9.4
 30
0.0
  0
VERTEX
  8
0
 10
-7.478454
 20
9.45
 30
0.0
  0
VERTEX
  8
0
 10
-7.478454
 20
9.5
 30
0.0
  0
VERTEX
  8
0
 10
-7.478454
 20
9.55
 30
0.0
  0
VERTEX
  8
0
 10
-7.478454
 20
9.6
 30
0.0
  0
VERTEX
  8
0
 10
-7.478454
 20
9.65
 30
0.0
  0
VERTEX
  8
0
 10
-7.478454
 20
9.7
 30
0.0
  0
VERTEX
  8
0
 10
-7.478454
 20
9.75
 30
0.0
  0
VERTEX
  8
0
 10
-7.478454
 20
9.8
 30
0.0
  0
VERTEX
  8
0
 10
-7.478454
 20
9.85
 30
0.0
  0
VERTEX
  8
0
 10
-7.478454
 20
9.9
 30
0.0
  0
VERTEX
  8
0
 10
-7.478454
 20
9.95
 30
0.0
  0
VERTEX
  8
0
 10
-7.478454
 20
10.0
 30
0.0
  0
VERTEX
  8
0
 10
-7.478454
 20
10.05
 30
0.0
  0
SEQEND
  8
0
  0
LINE
  8
0
 62
0
 10
-7.478454
 20
-12.478971
 30
0.0
 11
7.56775
 21
-12.478971
 31
0.0
  0
LINE
  8
0
 62
0
 10
-7.478454
 20
12.523619
 30
0.0
 11
-7.478454
 21
-12.478971
 31
0.0
  0
LINE
  8
0
 62
0
 10
7.56775
 20
-12.478971
 30
0.0
 11
7.56775
 21
12.523619
 31
0.0
  0
LINE
  8
0
 62
0
 10
7.56775
 20
12.523619
 30
0.0
 11
-7.478454
 21
12.523619
 31
0.0
  0
CIRCLE
  8
0
 62
0
 10
0.0
 20
6.12323399574e-16
 30
0.0
 40
4.65
  0
ENDBLK
  0
ENDSEC
  0
SECTION
  2
ENTITIES
  0
INSERT
  2
CUT_SOLID
  8
0
 62
0
 10
0.0
 20
0.0
 30
0.0
  0
ENDSEC
  0
EOF
